<?xml version="1.0" encoding="UTF-8" standalone="no"?>
<svg
   xmlns:dc="http://purl.org/dc/elements/1.1/"
   xmlns:cc="http://creativecommons.org/ns#"
   xmlns:rdf="http://www.w3.org/1999/02/22-rdf-syntax-ns#"
   xmlns:svg="http://www.w3.org/2000/svg"
   xmlns="http://www.w3.org/2000/svg"
   viewBox="0 0 3504 1925.3333"
   height="1925.3333"
   width="3504"
   xml:space="preserve"
   id="svg2"
   version="1.1"><metadata
     id="metadata8"><rdf:RDF><cc:Work
         rdf:about=""><dc:format>image/svg+xml</dc:format><dc:type
           rdf:resource="http://purl.org/dc/dcmitype/StillImage" /></cc:Work></rdf:RDF></metadata><defs
     id="defs6"><clipPath
       id="clipPath18"
       clipPathUnits="userSpaceOnUse"><path
         id="path16"
         d="m 150,490.957 h 2324.408 v 529.758 H 150 Z" /></clipPath></defs><g
     transform="matrix(1.3333333,0,0,-1.3333333,0,1925.3333)"
     id="g10"><g
       id="g12"><g
         clip-path="url(#clipPath18)"
         id="g14"><g
           transform="translate(2192.9199,607.1348)"
           id="g20"><path
             id="path22"
             style="fill:#231f20;fill-opacity:1;fill-rule:nonzero;stroke:none"
             d="m 0,0 c -0.072,-0.028 -0.159,-0.042 -0.21,-0.092 -0.02,-0.02 0.027,-0.167 0.06,-0.174 0.064,-0.011 0.171,0.016 0.2,0.063 C 0.075,-0.161 0.02,-0.069 0,0 m -359.899,134.188 c -0.028,0.059 -0.054,0.118 -0.08,0.177 -0.015,-0.108 -0.03,-0.216 -0.045,-0.324 0.042,0.049 0.083,0.098 0.125,0.147 M -164.246,68.5 c -0.023,-0.065 -0.045,-0.132 -0.067,-0.197 0.063,-0.013 0.147,-0.056 0.185,-0.031 0.042,0.029 0.042,0.12 0.061,0.183 -0.06,0.016 -0.12,0.03 -0.179,0.045 M -340.532,6.875 c 0,4.347 0.02,8.692 -0.027,13.038 -0.005,0.542 -0.367,1.08 -0.564,1.62 -0.387,-0.353 -0.871,-0.643 -1.147,-1.068 -4.75,-7.337 -9.363,-14.766 -14.275,-21.992 -1.413,-2.08 -0.407,-2.226 1.123,-2.676 4.201,-1.234 8.469,-2.303 12.548,-3.861 2.17,-0.83 2.368,-0.17 2.354,1.624 -0.035,4.438 -0.011,8.877 -0.012,13.315 m 10e-4,51.168 c 0,3.801 -0.029,7.602 0.012,11.401 0.019,1.726 -0.545,2.761 -2.415,3.083 -1.688,0.292 -3.326,0.897 -4.969,1.418 -5.817,1.845 -11.624,3.716 -17.441,5.56 -0.227,0.072 -0.512,-0.037 -0.77,-0.063 0.043,-0.313 -0.017,-0.699 0.144,-0.929 1.253,-1.798 2.549,-3.566 3.83,-5.343 1.818,-2.52 3.624,-5.046 5.452,-7.559 3.005,-4.134 6.037,-8.251 9.032,-12.393 1.663,-2.3 3.243,-4.661 4.933,-6.94 0.414,-0.557 1.118,-0.901 1.688,-1.343 0.168,0.662 0.473,1.321 0.482,1.984 0.047,3.708 0.023,7.416 0.022,11.124 m 17.079,42.58 c 0,-4.439 0.011,-8.88 -0.006,-13.32 -0.006,-1.618 0.194,-2.189 2.236,-1.653 3.958,1.039 8.077,1.454 12.122,2.169 2.504,0.445 5.003,0.924 7.486,1.474 1.292,0.285 2.542,0.759 3.81,1.147 -1.015,1.066 -2.01,2.153 -3.05,3.195 -6.923,6.941 -13.853,13.876 -20.794,20.8 -0.375,0.374 -0.872,0.627 -1.311,0.936 -0.165,-0.568 -0.469,-1.136 -0.474,-1.705 -0.04,-4.347 -0.022,-8.695 -0.019,-13.043 m 0.07,-19.724 c -0.182,-0.064 -0.365,-0.128 -0.549,-0.193 0.643,-1.2 1.01,-2.727 1.978,-3.542 3.629,-3.06 7.458,-5.882 11.204,-8.804 2.739,-2.136 5.516,-4.23 8.179,-6.459 1.805,-1.511 1.654,-0.184 1.72,1.018 0.071,1.284 0.057,2.583 0.252,3.849 0.457,2.961 1.055,5.9 1.527,8.859 0.586,3.672 1.092,7.357 1.653,11.034 0.163,1.064 0.325,1.73 -1.31,1.378 -2.762,-0.593 -5.622,-0.723 -8.41,-1.22 -4.477,-0.797 -8.899,-2.013 -13.405,-2.501 -2.493,-0.269 -3.31,-1.035 -2.839,-3.419 m -1404.488,1.492 c 6.669,0 13.337,-0.015 20.006,0.026 0.545,0.003 1.089,0.381 1.633,0.585 -0.286,0.343 -0.508,0.787 -0.868,1.014 -4.88,3.062 -9.762,6.122 -14.678,9.127 -5.778,3.532 -11.609,6.977 -17.375,10.526 -2.201,1.354 -2.681,1.249 -3.536,-1.223 -0.743,-2.145 -1.498,-4.286 -2.275,-6.419 -1.368,-3.753 -2.742,-7.503 -4.142,-11.244 -0.665,-1.773 -0.449,-2.504 1.786,-2.447 6.48,0.164 12.965,0.058 19.449,0.055 m 1462.534,-20.01 -0.006,0.155 c 0.834,0 1.673,-0.059 2.499,0.02 0.688,0.065 1.361,0.295 2.039,0.451 -0.485,0.477 -0.913,1.039 -1.465,1.419 -7.007,4.822 -14.028,9.626 -21.056,14.418 -3.778,2.574 -7.56,5.14 -11.4,7.618 -0.279,0.181 -1.465,-0.321 -1.522,-0.634 -0.449,-2.506 -0.756,-5.04 -1.054,-7.571 -0.332,-2.812 -0.572,-5.634 -0.922,-8.443 -0.281,-2.258 -0.541,-4.532 -1.037,-6.748 -0.596,-2.668 -0.289,-3.307 2.486,-3.197 1.799,0.071 3.571,0.686 5.375,0.865 3.642,0.362 7.295,0.644 10.948,0.866 5.036,0.305 10.076,0.524 15.115,0.781 m -58.118,89.955 c 0,-6.014 -0.01,-12.028 0.017,-18.042 0.001,-0.602 0.224,-1.201 0.344,-1.803 0.52,0.306 1.131,0.518 1.545,0.93 7.48,7.434 14.935,14.893 22.399,22.345 1.003,1.001 1.563,1.735 -0.291,2.615 -1.968,0.933 -3.722,2.315 -5.582,3.479 -5.27,3.297 -10.511,6.64 -15.834,9.846 -2.242,1.35 -2.578,1.081 -2.589,-1.606 -0.026,-5.921 -0.008,-11.843 -0.009,-17.764 m 296.489,-32.208 c 0,-0.705 -0.082,-1.035 0.013,-1.302 1.949,-5.474 3.894,-10.951 5.89,-16.409 2.902,-7.937 5.677,-15.926 8.855,-23.751 1.096,-2.698 1.384,-6.51 5.607,-6.853 0.915,-0.075 1.859,-0.143 2.724,-0.419 7.651,-2.441 15.285,-4.932 22.931,-7.391 0.483,-0.155 1.011,-0.17 1.519,-0.25 -0.128,0.503 -0.15,1.07 -0.407,1.495 -0.424,0.7 -0.957,1.349 -1.519,1.948 -1.14,1.217 -2.411,2.32 -3.485,3.59 -4.554,5.378 -9.01,10.838 -13.591,16.193 -2.81,3.284 -5.802,6.412 -8.676,9.642 -1.892,2.128 -3.733,4.302 -5.573,6.475 -3.198,3.776 -6.388,7.56 -9.559,11.359 -0.994,1.191 -1.901,2.456 -2.877,3.663 -0.46,0.569 -0.991,1.08 -1.852,2.01 m -313.567,97.767 c 0,6.485 0.027,12.971 -0.026,19.456 -0.008,1.104 -0.356,2.206 -0.546,3.309 -0.89,-0.78 -1.895,-1.462 -2.649,-2.356 -4.424,-5.244 -8.734,-10.584 -13.193,-15.798 -2.929,-3.426 -6.107,-6.64 -9.053,-10.053 -2.671,-3.094 -2.598,-3.159 0.544,-5.52 0.368,-0.277 0.677,-0.654 1.077,-0.863 7.099,-3.7 14.193,-7.405 21.318,-11.054 2.314,-1.185 2.517,-1.018 2.525,1.755 0.017,7.041 0.005,14.083 0.003,21.124 m 17.079,-175.626 h -0.021 c 0,-10.569 -0.007,-21.137 0.023,-31.706 0.001,-0.541 0.327,-1.08 0.503,-1.621 0.298,0.435 0.677,0.834 0.882,1.31 1.656,3.852 3.325,7.699 4.905,11.582 3.018,7.42 5.951,14.876 8.977,22.292 1.723,4.22 3.605,8.374 5.324,12.595 0.611,1.5 0.257,2.899 -1.089,3.966 -1.726,1.367 -3.412,2.783 -5.139,4.148 -4.095,3.236 -8.197,6.464 -12.313,9.673 -0.531,0.412 -1.165,0.689 -1.751,1.029 -0.101,-0.614 -0.287,-1.227 -0.288,-1.842 -0.019,-10.475 -0.013,-20.951 -0.013,-31.426 m 208.932,-15.341 c -0.718,0.449 -1.256,0.987 -1.891,1.15 -3.97,1.016 -7.953,1.977 -11.945,2.9 -4.521,1.045 -9.066,1.988 -13.58,3.056 -4.329,1.025 -8.614,2.238 -12.963,3.153 -0.708,0.149 -2.087,-0.622 -2.412,-1.316 -1.389,-2.965 -2.549,-6.041 -3.701,-9.111 -2.998,-7.997 -5.95,-16.012 -8.909,-24.024 -0.186,-0.506 -0.27,-1.05 -0.401,-1.577 0.587,0.118 1.224,0.127 1.755,0.37 7.342,3.366 14.686,6.73 21.999,10.161 6.909,3.242 13.772,6.583 20.675,9.837 3.235,1.524 6.521,2.936 9.774,4.419 0.487,0.222 0.921,0.561 1.599,0.982 m -209.481,151.956 c 0.197,-0.101 0.395,-0.201 0.592,-0.302 -0.245,-1.991 0.138,-3.362 2.196,-4.512 4.627,-2.583 8.977,-5.658 13.486,-8.458 3.19,-1.981 6.45,-3.85 9.695,-5.739 0.776,-0.452 1.548,-0.79 1.665,0.685 0.253,3.189 0.638,6.368 0.883,9.557 0.35,4.567 0.625,9.139 0.932,13.71 0.012,0.184 0.029,0.368 0.055,0.55 0.574,4.059 1.275,8.103 1.693,12.177 0.457,4.463 0.646,8.954 0.975,13.431 0.032,0.445 0.282,0.872 0.326,1.319 0.075,0.749 0.066,1.507 0.091,2.261 -0.566,-0.405 -1.21,-0.733 -1.685,-1.226 -6.85,-7.112 -13.66,-14.262 -20.519,-21.366 -2.636,-2.729 -5.453,-5.287 -8.018,-8.08 -1.026,-1.118 -1.592,-2.659 -2.367,-4.007 M -59.159,76.962 c 6.491,0 12.982,-0.018 19.472,0.021 0.863,0.005 1.722,0.302 2.583,0.464 -0.492,0.639 -0.91,1.358 -1.49,1.905 -4.429,4.178 -8.927,8.287 -13.335,12.489 -7.962,7.594 -15.875,15.237 -23.807,22.859 -0.134,0.129 -0.259,0.268 -0.399,0.389 -1.144,0.986 -1.817,0.754 -1.976,-0.774 -0.304,-2.908 -0.649,-5.811 -0.895,-8.724 -0.354,-4.209 -0.636,-8.425 -0.951,-12.638 -0.021,-0.276 -0.044,-0.553 -0.083,-0.828 -0.552,-3.971 -1.267,-7.927 -1.611,-11.916 -0.279,-3.222 -0.081,-3.243 3.298,-3.245 6.398,-0.004 12.796,-0.001 19.194,-0.002 m -1579.987,5.441 c 1.343,0 2.288,-0.106 3.185,0.056 0.327,0.059 0.855,0.869 0.756,1.145 -1.714,4.786 -3.517,9.54 -5.29,14.304 -2.534,6.813 -5.053,13.63 -7.59,20.442 -1.014,2.722 -1.989,5.464 -3.133,8.133 -0.295,0.69 -1.172,1.612 -1.76,1.597 -1.33,-0.035 -2.645,-0.593 -3.967,-0.929 -4.31,-1.093 -8.632,-2.137 -12.926,-3.289 -3.52,-0.944 -7.019,-1.973 -10.501,-3.048 -1.596,-0.492 -2.038,-1.174 -0.487,-2.563 4.527,-4.056 8.905,-8.275 13.369,-12.402 3.309,-3.06 6.675,-6.058 9.989,-9.113 4.267,-3.932 8.575,-7.825 12.73,-11.876 1.749,-1.706 3.423,-3.113 5.625,-2.457 m -10.233,-80.269 h 34.178 c 0.556,0 1.12,-0.057 1.664,0.023 0.297,0.044 0.559,0.321 0.837,0.492 -0.173,0.185 -0.318,0.414 -0.525,0.544 -0.389,0.245 -0.8,0.469 -1.228,0.638 -4.249,1.675 -8.508,3.323 -12.754,5.008 -3.396,1.348 -6.762,2.769 -10.165,4.099 -7.906,3.09 -15.828,6.142 -23.74,9.214 -3.742,1.453 -7.524,2.819 -11.201,4.422 -1.773,0.774 -2.342,0.12 -3.043,-1.379 -3.111,-6.641 -6.326,-13.235 -9.536,-19.831 -1.497,-3.076 -1.429,-3.22 2.168,-3.222 11.115,-0.006 22.23,-0.002 33.345,-0.008 m 1352.105,121.251 c 0,8.991 0.018,17.983 -0.022,26.974 -0.005,1.229 -0.303,2.455 -0.465,3.683 -0.971,-0.809 -2.01,-1.55 -2.904,-2.437 -5.789,-5.746 -11.53,-11.54 -17.316,-17.288 -5.605,-5.566 -5.621,-5.55 -5.474,-13.414 0.003,-0.185 -0.052,-0.391 0.011,-0.552 0.321,-0.828 0.473,-1.832 1.045,-2.432 7.649,-8.024 15.35,-15.998 23.068,-23.957 0.456,-0.471 1.153,-0.709 1.738,-1.056 0.106,0.612 0.303,1.224 0.304,1.835 0.019,9.548 0.014,19.096 0.015,28.644 M 107.592,19.587 c 0,-5.005 -0.009,-10.011 0.011,-15.016 0.002,-0.624 0.158,-1.246 0.242,-1.869 0.53,0.251 1.106,0.436 1.583,0.765 3.172,2.185 6.303,4.429 9.483,6.603 6.353,4.343 12.723,8.661 19.096,12.974 5.381,3.642 10.785,7.247 16.16,10.896 2.352,1.597 4.658,3.26 6.977,4.906 0.284,0.201 0.516,0.475 0.773,0.716 -0.403,0.14 -0.821,0.435 -1.206,0.397 -2.363,-0.238 -4.712,-0.675 -7.079,-0.815 -6.153,-0.367 -12.313,-0.641 -18.472,-0.902 -8.387,-0.355 -16.773,-0.726 -25.164,-0.947 -2.039,-0.054 -2.467,-0.878 -2.435,-2.692 0.087,-5.004 0.03,-10.01 0.031,-15.016 M -30.9,76.962 c 0.781,0 1.253,0.056 1.707,-0.01 1.782,-0.258 2.379,0.337 1.593,2.067 -0.146,0.321 -0.041,0.752 -0.171,1.086 -2.533,6.527 -5.145,13.023 -7.614,19.574 -2.05,5.44 -3.893,10.958 -5.908,16.412 -1.039,2.809 -2.206,5.575 -3.429,8.309 -0.211,0.472 -1.075,1.054 -1.501,0.961 -3.564,-0.776 -7.102,-1.679 -10.638,-2.581 -5.57,-1.42 -11.132,-2.864 -16.695,-4.311 -0.6,-0.156 -1.178,-0.404 -1.766,-0.609 0.32,-0.616 0.508,-1.373 0.983,-1.826 4.614,-4.388 9.315,-8.685 13.915,-13.087 8.285,-7.926 16.545,-15.881 24.752,-23.886 1.475,-1.438 2.898,-2.591 4.772,-2.099 m -292.554,137.07 c 0,-9.079 -0.009,-18.158 0.017,-27.237 0.002,-0.687 0.255,-1.373 0.391,-2.059 0.579,0.402 1.228,0.733 1.726,1.218 2.258,2.195 4.508,4.4 6.696,6.665 7.308,7.572 14.574,15.185 21.894,22.746 1.004,1.038 1.074,1.899 -0.039,2.769 -0.936,0.732 -2.016,1.288 -2.911,2.063 -4.931,4.271 -9.848,8.559 -14.724,12.894 -3.509,3.12 -6.946,6.322 -10.413,9.488 -0.205,0.187 -0.395,0.394 -0.611,0.568 -1.104,0.895 -1.86,0.8 -2.006,-0.768 -0.059,-0.643 -0.018,-1.296 -0.019,-1.944 0,-8.801 0,-17.602 -0.001,-26.403 m -17.077,-113.176 c 0,8.334 0.062,16.669 -0.07,25.001 -0.019,1.211 -0.656,2.766 -1.546,3.536 -1.924,1.662 -4.174,2.957 -6.338,4.327 -1.428,0.903 -2.456,0.892 -2.938,-1.169 -1.11,-4.75 -2.352,-9.471 -3.648,-14.173 -1.755,-6.369 -3.624,-12.708 -5.42,-19.065 -1.55,-5.485 -2.951,-11.014 -4.665,-16.445 -0.542,-1.717 0.262,-1.941 1.389,-2.25 1.669,-0.455 3.373,-0.79 5.022,-1.305 5.293,-1.65 10.584,-3.31 15.84,-5.073 1.983,-0.665 2.443,-0.14 2.417,1.893 -0.107,8.24 -0.044,16.482 -0.043,24.723 M -47.578,-1.411 c 0.005,0.113 0.009,0.227 0.014,0.341 9.029,-0.405 18.055,-0.901 27.088,-1.182 6.016,-0.186 12.041,-0.076 18.063,-0.065 0.397,0 0.794,0.278 1.19,0.426 -0.328,0.271 -0.615,0.642 -0.991,0.793 -2.031,0.816 -4.199,1.366 -6.108,2.399 -4.161,2.254 -8.898,2.841 -13.126,5.087 -5.067,2.691 -10.656,4.399 -16.028,6.514 -5.612,2.21 -11.235,4.392 -16.848,6.597 -3.652,1.434 -7.314,2.843 -10.933,4.355 -1.578,0.66 -2.604,0.528 -3.116,-1.284 -0.411,-1.457 -0.786,-2.956 -1.449,-4.302 -1.356,-2.756 -2.93,-5.403 -4.346,-8.129 -1.526,-2.94 -2.941,-5.937 -4.476,-8.871 -0.613,-1.174 -0.397,-1.725 0.931,-1.819 4.024,-0.283 8.043,-0.729 12.07,-0.824 6.019,-0.141 12.043,-0.036 18.065,-0.036 m -1674.675,67.604 c -3.057,0 -6.113,-0.001 -9.169,0 -6.669,0 -13.338,0.013 -20.006,-0.019 -0.582,-0.002 -1.161,-0.299 -1.742,-0.458 0.361,-0.511 0.636,-1.125 1.1,-1.513 1.119,-0.934 2.437,-1.648 3.481,-2.651 9.46,-9.089 18.891,-18.208 28.292,-27.358 1.229,-1.196 2.162,-1.944 3.529,-0.138 3.033,4.006 6.124,7.969 9.296,11.866 3.236,3.974 6.597,7.848 9.902,11.766 1.655,1.962 3.358,3.889 4.93,5.916 0.465,0.601 0.559,1.489 0.824,2.245 -0.699,0.115 -1.397,0.329 -2.096,0.331 -9.447,0.022 -18.894,0.014 -28.341,0.013 M -323.452,-1.752 c 0,-1.293 -10e-4,-2.035 0,-2.776 0.006,-3.24 0.011,-3.252 2.947,-2.251 9.525,3.244 19.009,6.615 28.594,9.668 2.385,0.76 1.904,1.948 1.552,3.516 -0.518,2.3 -0.999,4.609 -1.482,6.915 -0.483,2.311 -0.953,4.624 -1.419,6.938 -0.735,3.642 -1.501,7.281 -2.182,10.934 -0.75,4.021 -1.375,8.065 -2.137,12.082 -0.743,3.919 -1.581,7.82 -2.406,11.722 -0.119,0.562 -0.398,1.089 -0.603,1.632 -0.407,-0.445 -0.974,-0.823 -1.194,-1.347 -1.236,-2.934 -2.345,-5.923 -3.578,-8.858 -1.734,-4.125 -3.603,-8.194 -5.297,-12.334 -3.24,-7.918 -6.508,-15.828 -9.545,-23.825 -1.536,-4.043 -4.118,-7.88 -3.25,-12.016 m -962.119,151.662 c 0.061,0.006 0.121,0.012 0.181,0.018 -0.196,1.818 0.015,3.812 -0.678,5.415 -1.263,2.923 -2.987,5.658 -4.65,8.391 -3.657,6.011 -7.374,11.984 -11.111,17.945 -1.99,3.175 -4.126,6.26 -6.086,9.454 -0.669,1.091 -0.919,0.933 -1.321,-0.075 -0.202,-0.51 -0.62,-0.982 -0.672,-1.498 -0.346,-3.458 -0.664,-6.92 -0.908,-10.387 -0.355,-5.025 -0.639,-10.054 -0.957,-15.081 -0.017,-0.276 -0.077,-0.548 -0.113,-0.822 -0.554,-4.236 -1.233,-8.46 -1.63,-12.711 -0.451,-4.832 -0.646,-9.688 -0.967,-14.533 -0.024,-0.359 -0.207,-0.705 -0.257,-1.065 -0.521,-3.774 -1.056,-7.547 -1.527,-11.327 -0.157,-1.256 0.481,-1.532 1.465,-0.833 1.121,0.796 2.172,1.688 3.267,2.52 6.118,4.641 12.235,9.281 18.36,13.911 2.04,1.542 4.181,2.964 6.113,4.629 0.733,0.631 1.211,1.746 1.437,2.726 0.243,1.056 0.054,2.211 0.054,3.323 m 753.058,-44.958 c -3.565,0 -6.343,-0.023 -9.121,0.01 -1.372,0.017 -1.67,-0.509 -0.99,-1.661 1.116,-1.893 2.191,-3.812 3.364,-5.669 3.364,-5.324 6.805,-10.602 10.149,-15.94 3.009,-4.804 5.929,-9.667 8.895,-14.5 0.92,-1.499 1.946,-1.932 3.197,-0.31 2.232,2.893 4.584,5.699 6.706,8.672 3.28,4.596 6.609,9.18 9.522,14.009 1.635,2.709 4.036,4.881 4.108,8.777 0.077,4.121 -0.921,7.878 -1.519,11.795 -0.378,2.472 -1.408,2.134 -3.228,1.428 -3.882,-1.507 -7.835,-2.867 -11.836,-4.023 -6.529,-1.887 -13.188,-3.021 -19.247,-2.588 m -1338.256,58.366 c -0.374,0.671 -1.252,1.775 -1.639,3.031 -1.362,4.407 -2.324,8.95 -3.874,13.285 -1.626,4.545 -3.614,8.978 -5.718,13.327 -1.171,2.42 -1.783,2.38 -3.625,0.434 -4.055,-4.283 -8.062,-8.612 -12.07,-12.94 -0.971,-1.049 -1.048,-4.861 -0.357,-6.241 1.595,-3.185 3.217,-6.367 4.597,-9.648 2.47,-5.872 4.722,-11.837 7.162,-17.722 1.366,-3.296 2.966,-6.493 4.395,-9.764 3.145,-7.2 6.232,-14.426 9.393,-21.618 0.295,-0.672 0.939,-1.191 1.421,-1.78 0.106,0.699 0.302,1.397 0.304,2.095 0.02,8.531 0.011,17.062 0.011,25.592 -10e-4,7.104 0,14.208 0,21.949 m 1530.237,-1.667 c 0,9.36 0.032,18.719 -0.05,28.078 -0.008,0.927 -0.45,2.321 -1.134,2.701 -8.283,4.594 -16.645,9.045 -25,13.51 -0.459,0.246 -1.021,0.299 -1.536,0.441 -0.017,-0.608 -0.183,-1.257 -0.024,-1.815 1.084,-3.843 2.287,-7.653 3.352,-11.501 1.16,-4.193 2.199,-8.419 3.319,-12.625 0.979,-3.682 2.019,-7.348 2.989,-11.032 1.061,-4.029 2.059,-8.073 3.108,-12.105 1.049,-4.035 1.991,-8.106 3.229,-12.084 1.37,-4.409 1.722,-9.507 6.967,-11.642 0.674,-0.274 1.272,-0.733 1.916,-1.089 0.769,-0.425 1.549,-0.831 2.326,-1.246 0.179,0.963 0.511,1.925 0.515,2.888 0.04,9.174 0.024,18.348 0.023,27.521 M -523.488,59.694 c -0.159,0.254 -0.319,0.507 -0.478,0.761 -0.385,0.024 -0.783,0.127 -1.15,0.06 -0.981,-0.182 -1.939,-0.48 -2.92,-0.653 -2.331,-0.411 -4.682,-0.72 -7.003,-1.177 -2.223,-0.439 -4.398,-1.122 -6.629,-1.501 -4.217,-0.718 -8.466,-1.243 -12.686,-1.944 -4.929,-0.818 -9.841,-1.738 -14.761,-2.616 -1.706,-0.305 -3.473,-0.436 -5.094,-0.992 -1.031,-0.354 -2.01,-1.205 -2.728,-2.069 -2.692,-3.242 -5.27,-6.578 -7.884,-9.884 -2.388,-3.018 -4.799,-6.018 -7.141,-9.071 -3.67,-4.784 -7.27,-9.622 -10.939,-14.407 -2.285,-2.978 -4.654,-5.892 -6.961,-8.853 -1.013,-1.298 -2.008,-2.614 -2.927,-3.979 -0.268,-0.398 -0.244,-0.992 -0.355,-1.497 0.382,0.2 0.782,0.371 1.142,0.604 4.381,2.833 8.734,5.71 13.139,8.506 7.877,5.001 15.838,9.872 23.664,14.953 8.36,5.426 16.586,11.062 24.905,16.553 8.477,5.594 16.995,11.124 25.504,16.668 0.387,0.252 0.866,0.363 1.302,0.538 m 2.721,4.316 c -0.244,0.601 -0.309,0.879 -0.454,1.105 -1.62,2.54 -3.246,5.076 -4.882,7.606 -3.078,4.756 -6.179,9.496 -9.24,14.261 -3.404,5.302 -6.761,10.635 -10.174,15.931 -0.535,0.83 -1.08,1.202 -1.736,-0.116 -0.934,-1.879 -2.209,-3.585 -3.209,-5.435 -4.055,-7.502 -8.015,-15.055 -12.098,-22.543 -2.807,-5.149 -5.771,-10.215 -8.638,-15.332 -0.628,-1.122 -1.239,-2.274 -1.649,-3.483 -0.118,-0.347 0.538,-1.377 0.763,-1.354 1.897,0.196 3.782,0.533 5.66,0.886 2.675,0.502 5.328,1.124 8.013,1.564 2.61,0.427 5.268,0.583 7.871,1.049 4.379,0.787 8.711,1.835 13.098,2.565 4.502,0.748 9.054,1.182 13.561,1.897 1.085,0.172 2.079,0.917 3.114,1.399 M -1700.62,2.14 c 2.411,0 4.823,-0.034 7.233,0.018 0.787,0.017 1.57,0.253 2.355,0.39 -0.432,0.652 -0.76,1.414 -1.313,1.941 -5.147,4.906 -10.361,9.741 -15.496,14.658 -2.946,2.822 -5.826,5.715 -8.649,8.659 -1.118,1.167 -2.01,1.425 -3.57,0.623 -3.507,-1.803 -7.184,-3.271 -10.756,-4.95 -10.322,-4.847 -20.64,-9.705 -30.933,-14.613 -4.576,-2.182 -9.097,-4.484 -13.626,-6.764 -0.712,-0.359 -1.333,-0.896 -1.996,-1.35 0.757,-0.152 1.521,-0.466 2.27,-0.432 6.712,0.305 13.433,0.332 20.15,0.672 18.081,0.915 36.24,-0.55 54.331,1.148 m 1204.971,107.647 c 0.287,-3.271 0.503,-6.653 0.929,-10.008 0.119,-0.934 0.724,-1.915 1.382,-2.615 0.238,-0.253 1.289,0.238 1.961,0.418 2.381,0.635 4.757,1.288 7.137,1.924 4.039,1.078 8.092,2.105 12.116,3.236 3.415,0.961 6.783,2.09 10.198,3.052 4.19,1.18 8.415,2.233 12.61,3.395 4.472,1.239 8.924,2.551 13.392,3.811 5.172,1.457 10.355,2.878 15.526,4.342 3.333,0.942 6.641,1.971 9.979,2.893 4.108,1.135 8.246,2.163 12.352,3.305 3.417,0.95 6.793,2.046 10.212,2.991 4.034,1.115 8.103,2.105 12.141,3.207 3.605,0.984 7.189,2.042 10.778,3.077 0.409,0.118 0.799,0.297 1.198,0.449 -0.435,0.187 -0.858,0.479 -1.307,0.531 -0.433,0.049 -0.891,-0.168 -1.342,-0.242 -3.143,-0.517 -6.281,-1.085 -9.436,-1.523 -2.986,-0.415 -5.993,-0.659 -8.984,-1.038 -2.258,-0.286 -4.508,-0.645 -6.755,-1.013 -3.134,-0.512 -6.25,-1.138 -9.395,-1.573 -2.985,-0.414 -6.008,-0.567 -8.994,-0.975 -3.69,-0.504 -7.356,-1.172 -11.037,-1.735 -2.432,-0.372 -4.88,-0.64 -7.308,-1.035 -3.134,-0.511 -6.241,-1.185 -9.383,-1.634 -3.07,-0.438 -6.173,-0.646 -9.253,-1.023 -2.26,-0.277 -4.512,-0.636 -6.759,-1.007 -3.136,-0.519 -6.252,-1.166 -9.399,-1.605 -2.989,-0.417 -6.01,-0.601 -9.009,-0.957 -2.169,-0.257 -4.325,-0.626 -6.487,-0.948 -3.783,-0.563 -7.552,-1.285 -11.353,-1.646 -3.828,-0.363 -5.709,-2.137 -5.71,-6.054 M -1676.05,29.404 c -0.179,0.284 -0.441,0.57 -0.555,0.906 -1.582,4.63 -3.216,9.246 -4.69,13.911 -1.94,6.142 -3.722,12.336 -5.65,18.483 -0.248,0.79 -0.961,1.435 -1.459,2.148 -0.422,-0.57 -0.825,-1.154 -1.271,-1.704 -0.463,-0.571 -0.971,-1.105 -1.452,-1.662 -2.047,-2.362 -4.162,-4.67 -6.122,-7.102 -3.27,-4.06 -6.419,-8.216 -9.66,-12.301 -2.445,-3.082 -5.001,-6.077 -7.416,-9.182 -1.936,-2.488 -1.923,-2.774 0.373,-4.984 5.922,-5.699 11.917,-11.32 17.85,-17.008 2.341,-2.245 4.591,-4.585 6.889,-6.875 0.709,-0.707 1.38,-1.255 1.505,0.401 0.034,0.436 0.218,0.88 0.412,1.284 3.383,7.028 6.784,14.05 10.166,21.08 0.397,0.824 0.704,1.692 1.08,2.605 M -68.473,25.379 c -0.347,1.4 -0.529,2.407 -0.847,3.368 -1.424,4.304 -2.908,8.587 -4.331,12.89 -2.136,6.453 -4.227,12.92 -6.384,19.365 -0.157,0.468 -0.647,1.039 -1.075,1.133 -0.36,0.079 -0.975,-0.376 -1.275,-0.755 -3.114,-3.939 -6.104,-7.98 -9.293,-11.858 -4.771,-5.802 -9.703,-11.472 -14.51,-17.247 -2.747,-3.298 -3.016,-5.397 0.437,-8.463 3.791,-3.363 7.543,-6.774 11.201,-10.281 3.877,-3.718 7.618,-7.577 11.429,-11.364 2.114,-2.101 2.152,-2.105 3.465,0.635 2.968,6.192 5.881,12.411 8.871,18.593 0.709,1.465 1.635,2.827 2.312,3.984 m -34.108,-26.861 c 0.009,-0.102 0.018,-0.204 0.025,-0.305 6.062,0.407 12.124,0.808 18.184,1.233 0.419,0.03 0.825,0.248 1.237,0.379 -0.294,0.412 -0.521,0.903 -0.895,1.22 -1.045,0.888 -2.233,1.618 -3.22,2.561 -7.554,7.215 -15.078,14.46 -22.595,21.713 -0.863,0.833 -1.537,1.282 -2.873,0.605 -3.848,-1.949 -7.818,-3.662 -11.733,-5.483 -5,-2.324 -10.001,-4.647 -14.989,-6.998 -5.993,-2.824 -11.978,-5.665 -17.955,-8.525 -2.41,-1.154 -4.768,-2.418 -7.185,-3.56 -2.071,-0.978 -4.208,-1.821 -6.278,-2.802 -0.408,-0.193 -0.647,-0.741 -0.963,-1.125 0.458,-0.231 0.895,-0.558 1.382,-0.665 0.53,-0.118 1.107,-0.055 1.662,-0.029 7.738,0.367 15.463,-0.098 23.241,0.685 10.081,1.015 20.287,0.823 30.441,1.078 4.169,0.104 8.343,0.018 12.514,0.018 m 193.6,38.656 c 0.389,0.116 0.968,0.289 1.547,0.463 -0.524,0.433 -0.992,0.984 -1.587,1.272 -0.727,0.352 -1.57,0.453 -2.346,0.715 -4.764,1.605 -9.498,3.302 -14.289,4.819 -7.633,2.417 -15.318,4.668 -22.951,7.082 -5.573,1.762 -11.078,3.741 -16.65,5.503 -7.634,2.414 -15.321,4.663 -22.954,7.082 -5.571,1.766 -11.08,3.73 -16.647,5.512 -1.16,0.372 -2.452,0.332 -3.683,0.482 0.308,-1.199 0.588,-2.405 0.937,-3.59 0.126,-0.431 0.476,-0.792 0.625,-1.22 2.497,-7.104 4.942,-14.225 7.507,-21.303 0.302,-0.834 1.156,-1.938 1.895,-2.06 3.148,-0.521 6.343,-0.809 9.531,-1.016 6.336,-0.41 12.662,0.237 19.052,-0.745 6.688,-1.027 13.558,0.16 20.39,-0.938 6.324,-1.015 12.818,0.178 19.294,-0.874 6.591,-1.07 13.456,0.754 20.329,-1.184 m -562.145,143.238 c -0.365,4.228 -0.523,8.358 -1.144,12.416 -0.405,2.653 -1.493,5.2 -2.251,7.801 -0.472,1.619 -1.088,1.521 -2.209,0.431 -7.944,-7.724 -15.937,-15.396 -23.918,-23.081 -1.726,-1.662 -3.289,-2.915 -2.399,-6.104 1.259,-4.501 1.362,-9.329 1.924,-14.021 0.628,-5.243 1.271,-10.485 1.801,-15.738 0.403,-3.997 0.674,-8.009 0.933,-12.018 0.102,-1.569 0.623,-2.171 2.002,-1.086 1.871,1.471 3.752,2.945 5.487,4.57 4.786,4.486 8.933,9.462 11.878,15.403 2.195,4.427 3.939,8.939 5.227,13.753 1.574,5.879 2.038,11.81 2.669,17.674 m -1266.755,-69.297 c 2.699,0.443 4.967,0.721 7.193,1.2 3.552,0.766 7.064,1.72 10.616,2.494 3.379,0.736 6.798,1.287 10.177,2.022 3.548,0.773 7.063,1.697 10.605,2.503 3.017,0.687 6.064,1.243 9.072,1.967 1.628,0.391 2.496,1.193 1.437,3.086 -2.511,4.489 -4.819,9.091 -7.315,13.589 -3.821,6.884 -7.757,13.705 -11.593,20.582 -2.144,3.843 -4.167,7.754 -6.294,11.608 -0.348,0.63 -0.894,1.193 -1.466,1.635 -0.192,0.148 -1.007,-0.074 -1.102,-0.305 -1.555,-3.784 -3.12,-7.567 -4.523,-11.409 -2.273,-6.228 -4.314,-12.543 -6.662,-18.741 -3.581,-9.454 -7.344,-18.839 -11.02,-28.257 -0.488,-1.249 -0.593,-2.29 0.875,-1.974 M -1779.37,2.336 c 0.976,0.441 1.491,0.652 1.986,0.901 4.698,2.357 9.388,4.729 14.089,7.079 13.363,6.68 26.719,13.376 40.112,19.996 1.714,0.847 2.071,1.472 0.477,2.794 -2.477,2.055 -4.938,4.139 -7.274,6.351 -7.18,6.798 -14.301,13.659 -21.437,20.504 -1.07,1.026 -2.148,2.052 -3.133,3.157 -1.18,1.323 -2.029,1.097 -2.612,-0.454 -0.798,-2.121 -1.466,-4.292 -2.289,-6.403 -2.21,-5.675 -4.551,-11.3 -6.694,-17 -2.943,-7.829 -5.717,-15.722 -8.631,-23.563 -1.49,-4.008 -3.141,-7.955 -4.675,-11.946 -0.14,-0.363 0.039,-0.849 0.081,-1.416 m 351.297,220.832 c 0,-5.928 0,-11.856 0.01,-17.784 0,-1.008 -0.134,-2.298 1.426,-2.108 2.162,0.264 4.301,0.74 6.445,1.146 2.586,0.489 5.156,1.068 7.753,1.482 2.61,0.416 5.251,0.636 7.867,1.017 1.981,0.288 3.947,0.682 5.916,1.051 2.677,0.502 5.34,1.085 8.027,1.521 2.607,0.423 5.245,0.65 7.853,1.062 3.14,0.497 6.267,1.083 9.392,1.667 0.679,0.127 1.329,0.409 1.992,0.62 -0.315,0.625 -0.488,1.406 -0.971,1.848 -2.028,1.857 -4.23,3.529 -6.222,5.422 -7.497,7.12 -14.913,14.326 -22.436,21.419 -0.78,0.736 -2.066,1.297 -3.127,1.314 -7.128,0.114 -14.261,0.009 -21.39,0.092 -1.915,0.022 -2.603,-0.597 -2.57,-2.541 0.095,-5.742 0.034,-11.485 0.039,-17.228 m -17.983,-91.326 h 0.019 c 0,13.155 0.01,26.311 -0.022,39.466 -10e-4,0.55 -0.323,1.1 -0.496,1.65 -0.319,-0.425 -0.688,-0.823 -0.948,-1.281 -2.354,-4.139 -4.643,-8.315 -7.039,-12.428 -4.047,-6.949 -8.17,-13.853 -12.235,-20.79 -1.434,-2.448 -2.749,-4.966 -4.198,-7.405 -3.635,-6.124 -7.289,-12.24 -10.995,-18.321 -1.142,-1.873 -0.509,-3.091 1.173,-4.024 5.942,-3.295 11.861,-6.635 17.863,-9.817 4.722,-2.503 9.554,-4.797 14.334,-7.189 2.451,-1.226 2.54,-1.187 2.541,1.507 0.01,12.877 0,25.755 0,38.632 m 864.357,-26.889 c -9.822,0 -19.645,0.008 -29.467,-0.018 -0.69,-0.002 -1.381,-0.26 -2.07,-0.399 0.212,-0.683 0.26,-1.488 0.663,-2.029 2.13,-2.863 4.353,-5.656 6.534,-8.482 2.181,-2.825 4.357,-5.653 6.519,-8.492 2.65,-3.48 5.267,-6.987 7.929,-10.459 2.833,-3.694 5.678,-7.381 8.566,-11.033 1.82,-2.301 3.697,-4.561 5.639,-6.759 0.237,-0.267 1.381,-0.244 1.522,-0.008 2.433,4.086 4.826,8.199 7.124,12.363 2.304,4.177 4.422,8.46 6.751,12.624 3.708,6.632 7.582,13.172 11.266,19.817 1.454,2.622 1.225,2.865 -1.787,2.869 -9.73,0.014 -19.46,0.006 -29.189,0.006 m 449.701,1.384 c 2.986,0.671 5.388,1.178 7.773,1.757 2.926,0.71 5.821,1.559 8.76,2.205 4.721,1.038 9.481,1.893 14.197,2.943 6.231,1.387 12.424,2.939 18.658,4.314 2.529,0.558 2.804,0.854 1.53,3.219 -3.787,7.028 -7.584,14.051 -11.455,21.034 -3.856,6.955 -7.786,13.87 -11.726,20.779 -1.174,2.058 -2.417,4.086 -3.767,6.032 -0.624,0.899 -1.302,1.673 -1.814,-0.382 -0.697,-2.802 -1.916,-5.481 -2.975,-8.187 -2.222,-5.679 -4.561,-11.313 -6.714,-17.017 -2.983,-7.901 -5.87,-15.838 -8.734,-23.783 -1.394,-3.869 -2.652,-7.788 -3.936,-11.697 -0.095,-0.289 0.104,-0.675 0.203,-1.217 M -1446.179,83.769 c 0.983,3.315 -0.931,4.698 -3.658,5.991 -4.811,2.282 -9.413,4.999 -14.157,7.428 -5.99,3.067 -12.025,6.047 -18.058,9.026 -2.096,1.035 -2.482,0.764 -2.848,-1.445 -0.266,-1.607 -0.662,-3.195 -1.047,-4.779 -1.135,-4.656 -2.333,-9.297 -3.428,-13.962 -0.745,-3.177 -1.302,-6.399 -2.041,-9.579 -1.083,-4.663 -2.289,-9.298 -3.374,-13.96 -0.718,-3.091 -1.283,-6.217 -1.975,-9.313 -0.848,-3.799 -1.757,-7.584 -2.635,-11.377 -0.08,-0.348 -0.117,-0.706 -0.173,-1.06 0.387,0.173 0.827,0.278 1.154,0.53 2.753,2.125 5.44,4.335 8.232,6.408 5.511,4.088 11.093,8.079 16.61,12.158 3.897,2.881 7.726,5.853 11.602,8.762 4.54,3.406 9.003,6.927 13.695,10.111 2.002,1.358 2.67,2.824 2.101,5.061 m -153.579,-42.422 c -3.206,0.487 -3.33,0.445 -2.346,-2.454 1.487,-4.382 3.139,-8.709 4.773,-13.039 2.6,-6.89 5.271,-13.753 7.837,-20.656 0.377,-1.015 0.662,-1.352 1.748,-0.889 5.64,2.405 11.309,4.738 16.962,7.113 3.965,1.665 7.898,3.406 11.881,5.028 7.364,2.999 14.755,5.932 22.133,8.897 4.756,1.91 9.52,3.799 14.259,5.753 2.453,1.011 4.869,2.118 7.275,3.24 0.421,0.196 0.706,0.682 1.054,1.034 -0.418,0.326 -0.794,0.753 -1.266,0.949 -0.401,0.167 -0.913,0.062 -1.375,0.09 -4.298,0.259 -8.566,-0.095 -12.917,0.741 -5.099,0.981 -10.427,0.752 -15.654,1.086 -4.024,0.257 -8.044,0.587 -12.067,0.856 -4.942,0.33 -9.886,0.617 -14.827,0.944 -4.118,0.273 -8.232,0.655 -12.354,0.846 -5.035,0.232 -10.077,0.314 -15.116,0.461 m -57.2,24.845 c -8.904,0 -17.807,-0.004 -26.71,0.004 -1.675,0.002 -2.479,-0.006 -1.666,-2.322 3.871,-11.042 7.469,-22.181 11.063,-33.318 0.363,-1.127 0.624,-0.942 1.469,-0.667 2.246,0.729 4.545,1.298 6.817,1.952 6.912,1.988 13.831,3.953 20.727,5.994 3.146,0.933 6.226,2.09 9.372,3.026 4.444,1.325 8.939,2.481 13.372,3.84 1.109,0.34 1.663,1.128 1.052,2.604 -2.23,5.38 -4.505,10.763 -6.275,16.302 -0.803,2.512 -2.098,2.641 -4.182,2.621 -8.346,-0.084 -16.693,-0.035 -25.039,-0.036 M -112.35,29.02 c 0.68,0.389 1.846,0.768 2.599,1.546 1.65,1.709 3.093,3.621 4.619,5.45 1.705,2.041 3.44,4.058 5.106,6.13 3.38,4.206 6.703,8.455 10.086,12.656 1.664,2.066 3.461,4.027 5.085,6.124 0.457,0.59 0.508,1.492 0.747,2.252 -0.706,0.103 -1.413,0.298 -2.12,0.299 -19.364,0.021 -38.728,-0.003 -58.091,0.072 -1.714,0.007 -2.552,-0.659 -3.096,-2.093 -2.582,-6.8 -5.125,-13.615 -7.798,-20.38 -0.521,-1.322 -0.435,-1.725 1.007,-2.037 3.282,-0.707 6.514,-1.645 9.779,-2.436 4.156,-1.007 8.327,-1.944 12.484,-2.943 3.351,-0.805 6.684,-1.682 10.038,-2.48 3.002,-0.715 6.02,-1.365 9.555,-2.16 m 385.892,40.912 c 0,16.865 0.005,33.73 -0.021,50.595 -0.001,0.651 -0.309,1.3 -0.473,1.951 -0.358,-0.506 -0.777,-0.979 -1.062,-1.521 -2.819,-5.363 -5.65,-10.721 -8.412,-16.113 -6.998,-13.665 -13.937,-27.361 -20.978,-41.003 -0.693,-1.341 -0.799,-2.339 0.095,-3.541 1.525,-2.05 2.995,-4.142 4.449,-6.242 3.89,-5.625 7.721,-11.292 11.65,-16.891 4.305,-6.133 8.687,-12.212 13.061,-18.297 0.29,-0.404 0.8,-0.65 1.209,-0.971 0.16,0.479 0.365,0.95 0.466,1.441 0.075,0.354 0.01,0.738 0.01,1.108 0,16.494 0,32.99 0.006,49.484 M -2026.847,59.4 V 5.427 c 0,-1.576 -0.051,-3.156 0.026,-4.729 0.028,-0.557 0.365,-1.099 0.562,-1.648 0.425,0.431 0.969,0.797 1.257,1.306 1.806,3.197 3.574,6.415 5.318,9.646 4.096,7.586 8.169,15.184 12.256,22.774 2.524,4.689 5.099,9.35 7.539,14.081 0.4,0.776 0.542,1.971 0.249,2.769 -2.315,6.325 -4.805,12.586 -7.163,18.895 -3.503,9.374 -6.937,18.773 -10.409,28.158 -1.736,4.689 -3.475,9.378 -5.247,14.053 -1.033,2.725 -2.119,5.429 -3.229,8.122 -0.136,0.331 -0.575,0.537 -0.874,0.799 -0.102,-0.331 -0.256,-0.657 -0.292,-0.995 -0.046,-0.458 0,-0.926 0,-1.389 0,-19.29 0,-38.58 0,-57.869 m 580.794,-14.583 c 0,4.266 -10e-4,8.532 0,12.797 0,6.12 0.012,12.241 -0.019,18.362 0,0.484 -0.303,0.967 -0.465,1.452 -0.389,-0.216 -0.813,-0.388 -1.162,-0.657 -4.068,-3.119 -8.082,-6.308 -12.192,-9.37 -6.53,-4.864 -13.138,-9.625 -19.684,-14.468 -5.958,-4.41 -11.869,-8.883 -17.821,-13.302 -2.126,-1.58 -2.148,-2.207 0.216,-3.321 8.559,-4.035 17.161,-7.978 25.71,-12.034 7.731,-3.667 15.416,-7.432 23.118,-11.16 2.128,-1.03 2.289,-0.959 2.292,1.378 0.014,10.108 0.01,20.216 0.01,30.323 m -539.044,-46.303 c 11.767,0 23.534,-0.007 35.302,0.016 0.6,10e-4 1.2,0.253 1.8,0.389 -0.306,0.519 -0.512,1.146 -0.936,1.539 -3.244,2.998 -6.548,5.931 -9.799,8.922 -4.203,3.868 -8.39,7.755 -12.555,11.664 -5.38,5.05 -10.751,10.109 -16.087,15.206 -2.41,2.304 -4.713,4.719 -7.086,7.063 -3.236,3.194 -3.236,3.18 -5.421,-0.98 -3.288,-6.258 -6.6,-12.503 -9.882,-18.764 -3.88,-7.399 -7.752,-14.802 -11.599,-22.219 -1.395,-2.688 -1.301,-2.827 1.795,-2.83 11.489,-0.014 22.979,-0.005 34.468,-0.006 M 6.048,40.03 C 2.159,40.058 2.015,39.826 3.253,36.666 4.215,34.212 5.151,31.748 6.073,29.279 7.822,24.593 9.549,19.898 11.291,15.21 12.967,10.699 14.688,6.204 16.31,1.674 c 0.643,-1.798 1.46,-2.188 3.266,-1.272 4.747,2.41 9.588,4.635 14.404,6.908 5.069,2.392 10.166,4.725 15.226,7.134 8.475,4.035 16.922,8.124 25.398,12.154 2.064,0.98 4.23,1.743 6.289,2.73 3.407,1.634 6.77,3.361 10.138,5.075 0.285,0.146 0.473,0.484 0.706,0.732 -0.215,0.145 -0.415,0.386 -0.646,0.423 -1.976,0.305 -3.949,0.692 -5.939,0.833 C 78.823,36.837 72.51,36.219 66.117,37.133 58.501,38.223 50.685,37.877 42.959,38.25 37.548,38.512 32.167,38.098 26.7,38.932 19.738,39.994 12.516,38.254 6.048,40.03 m -621.659,13.515 c 0,-15.302 -0.006,-30.603 0.017,-45.904 0.002,-0.778 0.264,-1.554 0.405,-2.331 0.692,0.554 1.528,0.998 2.054,1.68 3.694,4.781 7.307,9.625 10.981,14.422 1.45,1.893 3.05,3.672 4.475,5.583 3.115,4.18 6.095,8.461 9.25,12.609 3.27,4.299 6.7,8.475 9.992,12.757 0.249,0.324 0.142,1.195 -0.125,1.591 -1.126,1.668 -2.385,3.245 -3.578,4.869 -2.972,4.048 -5.916,8.118 -8.908,12.152 -2.073,2.793 -4.208,5.539 -6.315,8.305 -2.659,3.492 -5.306,6.993 -7.982,10.47 -2.842,3.694 -5.706,7.374 -8.587,11.039 -0.311,0.397 -0.802,0.651 -1.21,0.972 -0.156,-0.492 -0.379,-0.975 -0.452,-1.479 -0.079,-0.545 -0.017,-1.11 -0.017,-1.667 z m 501.665,23.418 c 8.989,0 17.982,0.14 26.967,-0.074 3.225,-0.076 4.288,1.218 4.304,4.504 0.01,1.852 -0.102,3.723 0.117,5.553 0.447,3.708 1.159,7.385 1.62,11.091 0.666,5.348 1.178,10.713 1.814,16.064 0.244,2.055 -0.234,2.798 -2.117,2.448 -3.141,-0.585 -6.254,-1.329 -9.366,-2.062 -5.77,-1.357 -11.531,-2.754 -17.295,-4.135 -3.452,-0.828 -6.892,-1.703 -10.355,-2.474 -3.292,-0.732 -6.603,-1.373 -9.912,-2.026 -3.24,-0.64 -6.036,-1.8 -7.221,-5.297 -0.991,-2.923 -2.135,-5.794 -3.21,-8.69 -1.485,-4.004 -2.882,-8.043 -4.481,-12.001 -1.11,-2.747 -1.127,-2.891 1.89,-2.896 9.082,-0.016 18.163,-0.006 27.245,-0.005 m -1559.109,5.43 c 8.058,0 16.117,-0.008 24.175,0.014 0.701,0.002 1.402,0.213 2.103,0.326 -0.425,0.638 -0.746,1.388 -1.292,1.896 -3.235,3.003 -6.545,5.926 -9.787,8.922 -4.466,4.128 -8.888,8.304 -13.34,12.448 -4.045,3.765 -8.014,7.62 -12.213,11.205 -1.293,1.104 -3.265,2.088 -4.868,2.005 -2.959,-0.154 -5.891,-1.068 -8.805,-1.789 -6.874,-1.701 -13.707,-3.571 -20.598,-5.192 -6.979,-1.641 -14.01,-3.062 -21.015,-4.595 -0.318,-0.07 -0.6,-0.299 -0.9,-0.454 0.236,-0.36 0.39,-0.857 0.722,-1.056 1.884,-1.127 3.828,-2.155 5.721,-3.269 5.213,-3.062 10.427,-6.123 15.61,-9.236 5.49,-3.298 10.894,-6.746 16.451,-9.927 1.435,-0.821 3.298,-1.212 4.973,-1.241 7.686,-0.127 15.375,-0.055 23.063,-0.057 m 1057.437,97.104 c 0,-19.194 -0.003,-38.387 0.011,-57.58 0,-0.611 0.163,-1.223 0.25,-1.834 0.453,0.48 1.029,0.89 1.339,1.448 3.383,6.088 6.769,12.175 10.065,18.31 4.868,9.058 9.65,18.163 14.501,27.231 1.035,1.936 2.348,3.733 3.283,5.712 0.989,2.093 2.626,3.821 1.116,6.764 -9.162,17.861 -18.049,35.865 -27.032,53.818 -0.701,1.401 -1.404,2.801 -2.171,4.166 -0.235,0.417 -0.686,0.713 -1.038,1.064 -0.114,-0.414 -0.256,-0.823 -0.331,-1.243 -0.048,-0.269 0.008,-0.555 0.008,-0.833 10e-4,-19.008 10e-4,-38.016 -0.001,-57.023 m -752.409,63.315 v 0.092 c -9.264,0 -18.527,0.011 -27.791,-0.022 -0.668,-0.002 -1.335,-0.324 -2.003,-0.498 0.365,-0.503 0.658,-1.083 1.105,-1.498 3.642,-3.385 7.32,-6.732 10.972,-10.107 0.883,-0.817 1.663,-1.748 2.568,-2.539 4.557,-3.99 9.389,-7.706 13.618,-12.016 2.39,-2.435 5.115,-3.281 8.109,-4.008 4.156,-1.008 8.338,-1.913 12.472,-3 5.006,-1.316 9.957,-2.845 14.965,-4.155 6.426,-1.681 12.883,-3.241 19.331,-4.835 0.567,-0.14 1.167,-0.149 1.752,-0.22 -0.153,0.65 -0.17,1.373 -0.478,1.937 -2.982,5.461 -6.05,10.874 -9.018,16.341 -4.021,7.406 -8.001,14.834 -11.94,22.283 -1.064,2.012 -1.874,4.182 -4.781,2.304 -0.331,-0.214 -0.908,-0.058 -1.371,-0.058 -9.17,-10e-4 -18.34,-10e-4 -27.51,-10e-4 M -1774.016,59.191 c -0.044,0.278 -0.087,0.556 -0.13,0.833 -0.815,0.251 -1.634,0.73 -2.446,0.717 -6.901,-0.105 -13.776,-0.02 -20.699,-0.737 -10.081,-1.043 -20.258,0.225 -30.442,-0.847 -9.685,-1.018 -19.535,0.296 -29.298,-0.979 -2.258,-0.295 -3.213,-1.078 -3.894,-2.977 -0.953,-2.654 -1.845,-5.365 -3.135,-7.858 -2.44,-4.718 -4.862,-9.488 -7.816,-13.884 -3.156,-4.697 -6.873,-9.022 -10.436,-13.437 -1.158,-1.434 -2.64,-2.603 -3.896,-3.964 -0.499,-0.541 -0.789,-1.276 -1.174,-1.922 0.665,0.183 1.349,0.316 1.992,0.558 2.398,0.901 4.781,1.839 7.171,2.76 5.54,2.134 11.089,4.245 16.619,6.404 3.664,1.431 7.286,2.969 10.954,4.384 7.162,2.764 14.351,5.456 21.514,8.214 4.523,1.742 9.012,3.57 13.531,5.323 4.685,1.819 9.388,3.594 14.083,5.386 4.779,1.823 9.572,3.612 14.335,5.477 3.749,1.467 7.489,2.967 11.172,4.59 0.798,0.352 1.337,1.291 1.995,1.959 m -252.831,133.749 c 0,-11.036 -0.01,-22.073 0.01,-33.109 0,-2.49 0.123,-2.616 2.173,-1.559 5.236,2.702 10.464,5.424 15.621,8.272 7.234,3.996 14.38,8.15 21.605,12.164 4.5,2.501 9.058,4.898 13.625,7.275 1.332,0.693 1.512,1.07 0.127,1.995 -1.978,1.318 -3.793,2.882 -5.673,4.348 -3.036,2.368 -6.049,4.765 -9.107,7.105 -4.65,3.557 -9.347,7.053 -13.992,10.618 -3.202,2.458 -6.306,5.045 -9.53,7.472 -4.166,3.137 -8.409,6.172 -12.618,9.251 -0.582,0.426 -1.16,0.859 -1.739,1.289 -0.166,-0.764 -0.474,-1.526 -0.477,-2.29 -0.031,-10.943 -0.021,-21.887 -0.021,-32.831 m 1443.775,50.892 c -9.545,0 -19.091,0.003 -28.637,-0.002 -3.059,-0.002 -3.049,-0.007 -1.635,-2.756 5.381,-10.461 10.797,-20.903 16.118,-31.394 4.496,-8.863 8.871,-17.787 13.323,-26.671 0.353,-0.706 0.895,-1.318 1.349,-1.973 0.471,0.634 1.056,1.213 1.395,1.91 3.171,6.515 6.303,13.049 9.439,19.581 3.377,7.033 6.712,14.086 10.129,21.099 2.862,5.873 5.809,11.703 8.729,17.546 1.318,2.641 1.329,2.654 -1.574,2.657 -9.545,0.008 -19.09,0.003 -28.636,0.003 m 690.662,-54.788 v -8.064 c 0.001,-10.293 0.007,-20.585 -0.004,-30.878 -0.001,-1.417 -0.341,-2.705 2.08,-2.014 3.229,0.921 6.609,1.317 9.931,1.908 3.962,0.705 7.936,1.336 11.892,2.074 4.127,0.771 8.225,1.702 12.359,2.43 3.516,0.619 7.08,0.977 10.589,1.626 0.661,0.123 1.695,1.118 1.653,1.639 -0.177,2.206 -0.888,4.244 -2.281,6.114 -3.493,4.685 -6.849,9.473 -10.167,14.284 -2.647,3.838 -5.078,7.826 -7.747,11.648 -3.87,5.54 -7.947,10.936 -11.791,16.493 -5.039,7.283 -9.933,14.666 -14.902,21.998 -0.34,0.502 -0.78,0.936 -1.174,1.402 -0.148,-0.665 -0.424,-1.331 -0.425,-1.996 -0.026,-12.888 -0.019,-25.776 -0.013,-38.664 M -1876.562,62.233 c -0.746,0.369 -1.562,0.97 -2.468,1.176 -1.859,0.422 -3.767,0.627 -5.653,0.932 -1.89,0.305 -3.776,0.634 -5.667,0.934 -2.343,0.373 -4.699,0.667 -7.03,1.104 -4.279,0.802 -8.538,1.708 -12.816,2.518 -2.415,0.457 -4.893,0.64 -7.262,1.254 -2.372,0.616 -2.908,0.568 -3.639,-1.739 -0.492,-1.552 -0.748,-3.178 -1.139,-4.764 -1.061,-4.3 -2.167,-8.589 -3.198,-12.898 -0.78,-3.26 -1.54,-6.527 -2.187,-9.815 -0.735,-3.741 -1.232,-7.529 -2.02,-11.257 -1.027,-4.867 -2.268,-9.691 -3.363,-14.544 -0.855,-3.791 -1.632,-7.6 -2.434,-11.403 -0.071,-0.335 -0.079,-0.683 -0.116,-1.026 0.406,0.05 0.85,0.009 1.211,0.164 2.676,1.153 5.384,2.247 7.986,3.553 2.871,1.439 5.591,3.181 8.463,4.619 6.407,3.208 11.569,8.066 16.804,12.768 3.199,2.872 5.893,6.313 8.742,9.562 1.205,1.374 2.41,2.806 3.298,4.39 3.585,6.392 7.086,12.834 10.524,19.306 0.804,1.516 1.24,3.228 1.964,5.166 m 1344.366,181.596 c -3.245,0 -6.491,0.025 -9.737,-0.008 -2.681,-0.026 -2.93,-0.342 -1.556,-2.586 2.863,-4.678 5.859,-9.275 8.815,-13.896 3.3,-5.161 6.619,-10.309 9.922,-15.467 3.648,-5.7 7.313,-11.39 10.922,-17.114 2.828,-4.487 5.61,-9.003 8.36,-13.537 1.362,-2.245 2.041,-2.362 3.877,-0.633 4.231,3.983 8.561,7.862 12.744,11.893 4.139,3.989 8.166,8.093 12.183,12.205 0.415,0.424 0.726,1.341 0.562,1.868 -0.511,1.643 -1.131,3.287 -1.967,4.787 -1.603,2.875 -3.103,5.879 -5.154,8.418 -3.349,4.146 -6.702,8.459 -10.795,11.793 -5.025,4.094 -10.873,7.176 -17.123,9.192 -4.674,1.507 -9.267,3.47 -14.378,3.113 -2.214,-0.155 -4.45,-0.026 -6.675,-0.028 M -1427.159,45.798 c 0,-10.665 -0.01,-21.33 0,-31.996 0,-2.599 0.147,-2.738 2.344,-1.512 3.926,2.19 7.754,4.554 11.668,6.766 7.598,4.293 15.216,8.548 22.843,12.785 8.51,4.728 17.042,9.418 25.557,14.136 0.449,0.248 0.838,0.601 1.255,0.906 -0.364,0.379 -0.661,0.88 -1.101,1.116 -4.209,2.265 -8.453,4.465 -12.667,6.723 -8.757,4.69 -17.483,9.44 -26.257,14.099 -6.911,3.67 -13.865,7.261 -20.822,10.846 -2.664,1.373 -2.819,1.248 -2.821,-1.873 -0.01,-10.665 0,-21.33 0,-31.996 m -0.014,64.598 c 0,-2.683 -0.017,-4.908 0.015,-7.131 0.01,-0.418 0.21,-0.832 0.322,-1.248 0.351,0.354 0.861,0.647 1.026,1.074 0.884,2.293 1.655,4.628 2.514,6.93 1.714,4.597 3.459,9.182 5.192,13.77 1.411,3.736 2.821,7.473 4.238,11.207 1.903,5.018 3.736,10.064 5.747,15.04 1.262,3.121 2.444,6.364 4.282,9.144 3.322,5.025 7.177,9.694 10.684,14.603 4.086,5.72 8.033,11.539 12.047,17.312 4.12,5.924 8.253,11.84 12.356,17.777 0.266,0.384 0.326,0.91 0.481,1.37 -0.536,0.01 -1.089,0.112 -1.606,0.016 -4.368,-0.817 -8.718,-1.742 -13.098,-2.49 -4.214,-0.721 -8.473,-1.183 -12.684,-1.919 -4.384,-0.766 -8.715,-1.834 -13.102,-2.567 -4.492,-0.75 -9.029,-1.23 -13.538,-1.88 -1.524,-0.22 -3.046,-0.524 -4.523,-0.949 -0.483,-0.139 -1.065,-0.73 -1.17,-1.21 -0.195,-0.886 -0.088,-1.841 -0.075,-2.767 0.382,-28.847 -0.952,-57.71 0.892,-86.082 M 107.586,93.713 h -0.011 c 0,-16.215 -0.004,-32.43 0.017,-48.644 0.001,-0.583 0.246,-1.166 0.377,-1.748 0.379,0.452 0.895,0.847 1.113,1.367 1.443,3.454 2.726,6.979 4.245,10.398 3.164,7.124 6.445,14.195 9.675,21.289 1.137,2.499 2.295,4.988 3.387,7.507 2.761,6.373 5.443,12.78 8.248,19.134 1.962,4.443 4.144,8.788 6.101,13.233 4.096,9.302 8.09,18.649 12.164,27.961 1.393,3.185 2.851,6.342 4.372,9.467 0.865,1.777 -0.148,1.924 -1.412,1.737 -2.155,-0.319 -4.296,-0.751 -6.434,-1.178 -3.936,-0.784 -7.859,-1.633 -11.8,-2.391 -3.856,-0.742 -7.733,-1.374 -11.591,-2.109 -4.025,-0.767 -8.01,-1.822 -12.064,-2.35 -5.745,-0.748 -6.396,-1.324 -6.391,-7.252 0.012,-15.474 0.004,-30.947 0.004,-46.421 m -2096.694,151.02 c -11.682,0 -23.364,-0.039 -35.045,0.037 -2.019,0.013 -2.869,-0.526 -2.732,-2.662 0.16,-2.493 0.065,-5.004 0.024,-7.507 -0.021,-1.271 0.193,-2.111 1.509,-2.895 2.588,-1.539 4.964,-3.45 7.354,-5.301 3.188,-2.469 6.265,-5.082 9.463,-7.537 6.027,-4.625 12.109,-9.178 18.162,-13.768 4.955,-3.758 9.887,-7.545 14.858,-11.28 1.369,-1.028 2.975,-2.8 4.236,-2.615 1.264,0.185 2.36,2.302 3.309,3.72 4.524,6.755 8.947,13.577 13.456,20.342 3.903,5.855 7.873,11.665 11.813,17.495 1.382,2.046 2.837,4.049 4.112,6.16 0.557,0.922 1.38,2.204 -0.902,2.35 -1.337,0.085 -2.653,0.611 -3.965,0.985 -4.924,1.406 -9.848,2.59 -15.058,2.517 -10.196,-0.142 -20.396,-0.042 -30.594,-0.041 M -51.178,63.489 c -8.249,0 -16.497,0 -24.745,-10e-4 -0.648,0 -1.388,0.174 -1.919,-0.08 -0.457,-0.218 -1.05,-1.041 -0.942,-1.408 0.818,-2.782 1.794,-5.518 2.721,-8.267 2.607,-7.728 5.143,-15.483 7.888,-23.163 0.485,-1.354 -0.153,-4.114 2.949,-3.508 0.208,0.04 0.516,-0.722 0.858,-1.017 0.68,-0.586 1.344,-1.276 2.144,-1.624 3.354,-1.456 6.739,-2.847 10.144,-4.176 6.469,-2.526 12.962,-4.99 19.441,-7.487 3.75,-1.445 7.482,-2.94 11.245,-4.346 3.062,-1.144 6.2,-2.09 9.229,-3.31 2.632,-1.061 5.135,-2.436 7.744,-3.559 0.861,-0.37 1.875,-0.385 2.819,-0.562 -0.004,1.094 0.016,2.19 -0.032,3.282 -0.011,0.244 -0.3,0.463 -0.396,0.717 -1.911,5.012 -3.863,10.01 -5.706,15.047 -2.722,7.433 -5.322,14.911 -8.056,22.339 -2.325,6.319 -4.972,12.529 -7.044,18.927 -0.683,2.109 -1.656,2.218 -3.318,2.211 -8.342,-0.032 -16.683,-0.015 -25.024,-0.015 M -1902.09,180.617 c 0.56,0.342 1.803,0.799 2.628,1.658 3.377,3.52 6.615,7.173 9.93,10.753 1.07,1.155 2.198,2.26 3.337,3.347 1.222,1.166 1.282,2.237 0.194,3.615 -3.004,3.803 -5.764,7.803 -8.863,11.523 -2.939,3.529 -5.868,7.184 -9.374,10.093 -4.48,3.719 -9.691,6.544 -14.297,10.127 -4.761,3.704 -10.288,5.502 -15.842,7.34 -0.336,0.111 -1.082,-0.406 -1.357,-0.818 -1.881,-2.813 -3.704,-5.666 -5.513,-8.526 -2.538,-4.014 -5.049,-8.045 -7.572,-12.069 -2.525,-4.027 -5.048,-8.055 -7.576,-12.08 -3.33,-5.304 -6.665,-10.605 -9.994,-15.909 -0.244,-0.39 -0.666,-0.811 -0.64,-1.192 0.034,-0.489 0.37,-1.304 0.696,-1.367 2.234,-0.438 4.49,-0.838 6.757,-1.019 4.757,-0.38 9.525,-0.617 14.288,-0.915 0.185,-0.011 0.371,-0.026 0.554,-0.052 4.139,-0.588 8.262,-1.35 12.421,-1.725 5.217,-0.471 10.463,-0.624 15.696,-0.917 0.277,-0.015 0.553,-0.049 0.828,-0.085 4.33,-0.562 8.659,-1.126 13.699,-1.782 M 215.045,73.521 c -0.643,-0.448 -1.086,-0.759 -1.531,-1.068 -2.63,-1.828 -5.236,-3.69 -7.895,-5.474 -5.634,-3.783 -11.324,-7.481 -16.937,-11.292 -6.286,-4.268 -12.517,-8.617 -18.758,-12.949 -0.57,-0.394 -1.045,-0.923 -1.564,-1.388 0.525,-0.461 0.98,-1.066 1.585,-1.359 4.8,-2.318 9.629,-4.578 14.451,-6.853 5.239,-2.473 10.48,-4.939 15.718,-7.412 5.57,-2.631 11.137,-5.266 16.704,-7.902 5.733,-2.714 11.465,-5.43 17.197,-8.146 5.736,-2.719 11.471,-5.442 17.209,-8.157 5.984,-2.833 11.965,-5.668 17.961,-8.477 0.622,-0.292 1.326,-0.41 1.992,-0.609 -0.366,0.652 -0.707,1.322 -1.11,1.952 -0.245,0.384 -0.623,0.682 -0.88,1.061 -3.642,5.362 -7.268,10.735 -10.909,16.097 -3.076,4.53 -6.174,9.046 -9.248,13.577 -2.615,3.856 -5.166,7.755 -7.824,11.579 -3.91,5.625 -7.935,11.17 -11.827,16.807 -4.154,6.015 -8.194,12.11 -12.334,18.138 -0.496,0.721 -1.3,1.231 -2,1.875 m -24.992,64.002 c -0.431,-0.152 -1.267,-0.424 -2.06,-0.789 -0.046,-0.02 0.16,-0.848 0.402,-1.195 1.514,-2.172 3.048,-4.332 4.622,-6.462 3.582,-4.848 7.249,-9.635 10.773,-14.523 3.473,-4.817 6.776,-9.753 10.223,-14.588 2.547,-3.573 5.267,-7.024 7.795,-10.612 2.47,-3.507 4.723,-7.17 7.2,-10.674 3.104,-4.392 6.353,-8.681 9.51,-13.035 1.074,-1.482 1.797,-1.49 2.723,0.054 0.848,1.413 1.813,2.763 2.574,4.22 4.219,8.062 8.394,16.148 12.58,24.228 5.074,9.794 10.152,19.586 15.213,29.387 1.555,3.012 0.993,3.798 -2.409,3.995 -3.754,0.219 -7.509,0.555 -11.24,1.023 -3.344,0.42 -6.644,1.188 -9.987,1.618 -3.364,0.431 -6.761,0.59 -10.134,0.95 -2.639,0.282 -5.267,0.667 -7.894,1.047 -3.612,0.523 -7.209,1.16 -10.83,1.607 -3.458,0.427 -6.943,0.639 -10.409,1.011 -2.549,0.273 -5.093,0.613 -7.629,0.991 -3.519,0.524 -7.028,1.112 -11.023,1.747 m -1514.548,-22.644 c -0.365,-0.053 -0.742,-0.063 -1.093,-0.164 -7.256,-2.102 -14.517,-4.186 -21.76,-6.333 -5.752,-1.706 -11.463,-3.551 -17.223,-5.227 -5.674,-1.649 -11.417,-3.064 -17.076,-4.761 -7.322,-2.196 -14.573,-4.63 -21.889,-6.849 -7.145,-2.167 -14.337,-4.18 -21.498,-6.295 -0.714,-0.21 -1.357,-0.659 -2.032,-0.997 0.594,-0.628 1.081,-1.445 1.8,-1.851 3.842,-2.167 7.722,-4.266 11.625,-6.321 6.436,-3.387 12.889,-6.743 19.357,-10.068 4.922,-2.531 9.9,-4.952 14.817,-7.492 5.643,-2.916 11.234,-5.931 16.89,-8.818 0.438,-0.224 1.499,0.011 1.787,0.395 0.925,1.233 1.634,2.631 2.407,3.977 2.464,4.29 4.867,8.615 7.388,12.871 4.622,7.802 9.314,15.562 13.972,23.343 2.066,3.453 4.117,6.915 6.176,10.373 2.481,4.164 4.96,8.33 7.445,12.492 0.781,1.31 0.462,1.893 -1.093,1.725 m 955.688,-31.534 c 0.18,0.175 0.917,0.585 1.161,1.192 0.465,1.16 0.607,2.447 0.96,3.659 1.855,6.355 3.693,12.715 5.616,19.049 2.549,8.399 5.173,16.774 7.754,25.162 0.074,0.242 0.106,0.703 0.004,0.753 -0.268,0.133 -0.653,0.2 -0.934,0.111 -1.815,-0.579 -3.601,-1.247 -5.42,-1.808 -3.39,-1.046 -6.782,-2.09 -10.198,-3.043 -4.118,-1.149 -8.274,-2.165 -12.394,-3.31 -3.428,-0.953 -6.817,-2.046 -10.242,-3.008 -4.907,-1.381 -9.843,-2.656 -14.742,-4.061 -3.409,-0.978 -6.75,-2.199 -10.171,-3.131 -6.05,-1.647 -12.154,-3.097 -18.204,-4.743 -6.24,-1.699 -12.443,-3.535 -18.662,-5.311 -8.408,-2.4 -16.816,-4.798 -25.223,-7.202 -2.007,-0.574 -4.021,-1.126 -6.003,-1.777 -0.411,-0.136 -0.691,-0.669 -1.032,-1.02 0.354,-0.235 0.683,-0.544 1.071,-0.683 0.332,-0.118 0.734,-0.029 1.104,-0.052 5.037,-0.309 10.073,-0.622 15.11,-0.934 0.185,-0.011 0.371,-0.017 0.555,-0.041 4.523,-0.577 9.036,-1.279 13.574,-1.703 4.929,-0.459 9.883,-0.659 14.825,-0.973 0.185,-0.012 0.369,-0.034 0.554,-0.056 4.981,-0.575 9.955,-1.235 14.947,-1.702 4.477,-0.419 8.974,-0.625 13.461,-0.928 0.184,-0.012 0.366,-0.053 0.549,-0.076 4.518,-0.578 9.025,-1.282 13.558,-1.698 4.845,-0.445 9.716,-0.614 14.576,-0.908 0.275,-0.017 0.547,-0.088 0.821,-0.123 4.146,-0.521 8.294,-1.042 13.025,-1.635 m -1058.846,7.972 c 0.494,-4.504 0.711,-4.653 4.889,-3.148 0.086,0.031 0.156,0.108 0.243,0.136 4.268,1.325 8.521,2.707 12.812,3.955 5.075,1.475 10.196,2.79 15.273,4.261 4.207,1.218 8.361,2.617 12.567,3.836 5.154,1.496 10.35,2.843 15.502,4.34 4.116,1.196 8.178,2.577 12.293,3.775 5.319,1.548 10.662,3.007 16.002,4.478 2.457,0.678 4.944,1.248 7.396,1.944 2.446,0.693 4.875,1.455 7.289,2.253 0.451,0.15 0.798,0.617 1.193,0.937 -0.365,0.251 -0.703,0.56 -1.099,0.744 -3.491,1.629 -6.972,3.282 -10.496,4.84 -6.866,3.035 -13.775,5.975 -20.634,9.028 -4.532,2.017 -8.979,4.221 -13.512,6.236 -7.031,3.125 -14.116,6.13 -21.154,9.243 -4.199,1.857 -8.402,3.721 -12.496,5.792 -1.521,0.769 -2.364,0.324 -2.885,-0.895 -1.325,-3.094 -2.522,-6.246 -3.711,-9.397 -2.183,-5.787 -4.313,-11.595 -6.486,-17.386 -1.756,-4.682 -3.521,-9.359 -5.323,-14.022 -1.773,-4.587 -3.654,-9.133 -5.379,-13.738 -0.883,-2.358 -1.53,-4.804 -2.284,-7.212 m -225.51,40.693 c -0.398,0.941 -0.619,1.344 -0.743,1.774 -1.21,4.189 -3.804,7.753 -4.824,12.13 -1.208,5.185 -3.678,10.069 -5.514,15.115 -1.707,4.694 -3.211,9.463 -4.966,14.138 -2.143,5.706 -4.541,11.315 -6.675,17.023 -3.282,8.782 -6.459,17.602 -9.63,26.425 -1.994,5.549 -3.886,11.134 -5.856,16.69 -0.158,0.447 -0.571,0.805 -0.865,1.204 -0.31,-0.394 -0.754,-0.743 -0.91,-1.191 -1.423,-4.107 -2.693,-8.269 -4.208,-12.341 -2.096,-5.634 -4.441,-11.175 -6.542,-16.808 -2.381,-6.386 -4.595,-12.835 -6.912,-19.246 -1.234,-3.411 -2.585,-6.781 -3.755,-10.214 -0.229,-0.673 -0.116,-1.693 0.252,-2.305 3.296,-5.472 6.807,-10.818 10.004,-16.345 2.474,-4.279 4.576,-8.773 6.866,-13.159 3.658,-7.004 7.337,-13.998 11.004,-20.998 0.472,-0.9 0.729,-1.539 2.204,-1.088 4.089,1.252 8.312,2.064 12.454,3.154 5.189,1.364 10.365,2.783 15.513,4.294 1.102,0.323 2.058,1.143 3.103,1.748 m -217.606,-33.761 c -0.034,0 -0.067,0.001 -0.101,0.001 0,1.387 0.37,2.903 -0.065,4.138 -1.806,5.141 -3.803,10.217 -5.828,15.279 -2.1,5.248 -4.334,10.442 -6.473,15.675 -2.654,6.49 -5.19,13.029 -7.928,19.483 -2.535,5.979 -5.264,11.876 -7.92,17.803 -0.3,0.669 -0.597,1.378 -1.072,1.91 -0.174,0.194 -1.197,0.05 -1.269,-0.147 -1.567,-4.261 -3.111,-8.533 -4.544,-12.84 -2.117,-6.359 -4.385,-12.682 -6.137,-19.143 -1.548,-5.71 -5.072,-11.062 -3.516,-17.446 0.222,-0.908 -0.265,-1.994 -0.442,-2.994 -0.237,-1.334 -0.598,-2.655 -0.72,-3.999 -0.347,-3.821 0.062,-7.615 -0.747,-11.51 -1.016,-4.889 -0.753,-10.039 -1.094,-15.073 -0.247,-3.646 -0.491,-7.296 -0.896,-10.926 -0.389,-3.476 0.647,-4.872 3.917,-5.111 1.344,-0.099 2.661,-0.536 3.999,-0.77 2.063,-0.362 4.131,-0.689 6.199,-1.016 2.343,-0.372 4.699,-0.669 7.031,-1.102 4.287,-0.796 8.56,-1.67 12.839,-2.506 2.581,-0.504 5.185,-0.906 7.737,-1.527 1.932,-0.471 2.818,-0.059 3.403,1.995 0.495,1.738 1.13,3.447 1.478,5.213 0.79,4.002 1.725,8.007 2.07,12.056 0.355,4.158 0.079,8.37 0.079,12.557 m 1793.488,20.779 c 1.545,0.327 2.548,0.479 3.513,0.757 2.456,0.707 4.873,1.559 7.346,2.196 6.092,1.572 12.186,3.148 18.323,4.523 2.082,0.467 2.236,1.33 1.576,3.051 -2.129,5.549 -4.224,11.113 -6.252,16.701 -2.263,6.232 -4.333,12.536 -6.677,18.736 -3.084,8.157 -6.451,16.207 -9.518,24.37 -3.286,8.749 -6.371,17.574 -9.531,26.37 -1.993,5.549 -3.951,11.11 -5.96,16.652 -0.185,0.512 -0.632,0.93 -0.957,1.391 -0.291,-0.502 -0.667,-0.973 -0.862,-1.51 -4.074,-11.183 -8.083,-22.389 -12.199,-33.557 -2.73,-7.41 -5.644,-14.752 -8.396,-22.154 -0.953,-2.566 -1.398,-4.872 0.613,-7.6 3.242,-4.396 5.793,-9.31 8.537,-14.062 1.836,-3.179 3.511,-6.451 5.238,-9.692 4.312,-8.093 8.582,-16.21 12.967,-24.263 0.474,-0.87 1.601,-1.383 2.239,-1.909 M 265.447,-9.162 c -0.002,-0.121 -0.004,-0.241 -0.006,-0.362 0.279,0 0.562,-0.035 0.833,0.006 0.761,0.116 1.517,0.262 2.274,0.397 -0.673,0.435 -1.306,0.956 -2.026,1.292 -3.66,1.706 -7.36,3.326 -11.013,5.046 -11.905,5.604 -23.795,11.235 -35.689,16.862 -5.233,2.476 -10.464,4.961 -15.689,7.453 -6.395,3.05 -12.777,6.123 -19.176,9.164 -5.983,2.845 -11.973,5.678 -17.986,8.46 -0.559,0.259 -1.502,0.399 -1.939,0.105 C 156.515,33.531 148.051,27.727 139.572,21.942 135.11,18.899 130.65,15.854 126.176,12.83 120.933,9.287 115.69,5.742 110.412,2.252 c -1.069,-0.708 -0.664,-1.185 0.109,-1.542 0.559,-0.259 1.25,-0.275 1.888,-0.32 4.308,-0.309 8.616,-0.614 12.927,-0.884 5.143,-0.323 10.287,-0.596 15.43,-0.92 4.218,-0.267 8.434,-0.576 12.652,-0.866 4.587,-0.316 9.172,-0.678 13.763,-0.936 6.433,-0.361 12.872,-0.662 19.31,-0.952 1.851,-0.084 3.719,0.079 5.56,-0.086 5.656,-0.506 11.299,-1.171 16.957,-1.667 4.302,-0.378 8.617,-0.609 12.928,-0.875 5.145,-0.317 10.293,-0.575 15.438,-0.91 4.123,-0.269 8.238,-0.696 12.364,-0.903 5.233,-0.264 10.473,-0.376 15.709,-0.553 m 1.538,138.221 c 0.01,0.077 0.019,0.154 0.029,0.23 0.74,-0.045 1.48,-0.095 2.22,-0.132 0.263,-0.013 0.529,0.004 0.792,0.008 -0.175,0.292 -0.282,0.69 -0.539,0.859 -2.906,1.913 -5.856,3.758 -8.752,5.687 -6.788,4.523 -13.565,9.062 -20.322,13.634 -5.157,3.489 -10.244,7.082 -15.416,10.551 -8.602,5.77 -17.246,11.48 -25.878,17.209 -6.871,4.561 -13.751,9.112 -20.627,13.666 -2.821,1.869 -5.738,3.611 -8.438,5.641 -2.568,1.929 -4.89,4.181 -7.355,6.25 -1.614,1.355 -3.276,2.656 -4.943,3.946 -3.696,2.858 -7.445,5.651 -11.107,8.553 -3.454,2.738 -6.789,5.628 -10.24,8.371 -5.382,4.278 -10.815,8.491 -16.233,12.724 -0.345,0.269 -0.74,0.473 -1.113,0.708 0.157,-0.384 0.251,-0.81 0.478,-1.147 4.895,-7.285 9.736,-14.605 14.73,-21.82 3.846,-5.559 7.936,-10.947 11.825,-16.476 3.198,-4.55 6.258,-9.196 9.381,-13.799 3.022,-4.457 6.046,-8.912 9.065,-13.372 2.615,-3.863 5.188,-7.755 7.842,-11.592 3.957,-5.722 7.986,-11.393 11.94,-17.116 1.058,-1.53 2.198,-2.46 4.259,-2.523 3.195,-0.096 6.382,-0.607 9.562,-1.026 3.713,-0.489 7.407,-1.13 11.123,-1.587 3.367,-0.414 6.756,-0.643 10.13,-1.004 2.46,-0.264 4.92,-0.56 7.367,-0.93 3.334,-0.506 6.644,-1.19 9.987,-1.623 3.457,-0.448 6.945,-0.656 10.413,-1.027 2.548,-0.273 5.093,-0.599 7.628,-0.973 4.068,-0.599 8.129,-1.257 12.192,-1.89 m -835.221,-11.516 c 11.494,0 22.992,0.166 34.482,-0.063 6.783,-0.134 13.374,0.514 19.745,2.817 3.781,1.367 7.491,2.937 11.187,4.524 0.676,0.29 1.655,1.207 1.567,1.649 -0.146,0.727 -0.97,1.412 -1.655,1.914 -0.734,0.538 -1.67,0.789 -2.46,1.261 -6.298,3.753 -12.576,7.541 -18.873,11.294 -3.384,2.018 -6.807,3.972 -10.191,5.99 -7.712,4.598 -15.416,9.208 -23.111,13.833 -3.688,2.216 -7.327,4.515 -11.031,6.703 -4.105,2.426 -8.296,4.707 -12.371,7.181 -1.365,0.829 -1.833,0.466 -2.48,-0.809 -1.284,-2.531 -2.802,-4.943 -4.171,-7.433 -3.624,-6.588 -7.261,-13.169 -10.818,-19.794 -4.688,-8.73 -9.316,-17.494 -13.944,-26.257 -1.469,-2.782 -1.43,-2.808 1.853,-2.809 14.09,-0.003 28.181,-10e-4 42.271,-10e-4 M -1537.63,40.074 c 0.02,0.098 0.04,0.196 0.06,0.293 2.424,-0.42 4.834,-1.036 7.277,-1.22 5.679,-0.427 11.376,-0.614 17.061,-0.974 1.535,-0.097 3.087,-0.335 4.57,-0.737 4.128,-1.12 5.841,-0.098 6.703,4.14 0.089,0.438 0.396,0.828 0.506,1.265 0.735,2.9 1.471,5.802 2.155,8.715 0.785,3.351 1.489,6.721 2.281,10.071 0.71,2.998 1.569,5.962 2.222,8.971 0.749,3.453 1.259,6.959 2.027,10.408 1.062,4.765 2.263,9.501 3.415,14.247 0.811,3.34 1.658,6.671 2.442,10.017 0.137,0.585 0.039,1.227 0.051,1.842 -0.585,-0.14 -1.231,-0.166 -1.744,-0.439 -3.652,-1.944 -7.271,-3.948 -10.911,-5.913 -4.049,-2.186 -8.106,-4.357 -12.167,-6.521 -9.577,-5.105 -19.157,-10.206 -28.739,-15.301 -4.551,-2.42 -9.113,-4.818 -13.662,-7.241 -9.498,-5.061 -18.978,-10.157 -28.49,-15.19 -6.184,-3.274 -12.414,-6.458 -18.616,-9.697 -0.473,-0.247 -0.884,-0.61 -1.324,-0.919 0.434,-0.311 0.832,-0.709 1.312,-0.909 0.579,-0.24 1.222,-0.387 1.849,-0.442 3.832,-0.332 7.668,-0.626 11.503,-0.935 3.655,-0.293 7.309,-0.595 10.964,-0.884 3.926,-0.311 7.851,-0.61 11.777,-0.915 3.834,-0.299 7.664,-0.653 11.501,-0.888 5.323,-0.327 10.651,-0.566 15.977,-0.844 m 1250.786,18.957 c -0.006,0.038 -0.01,0.075 -0.016,0.114 -3.642,-0.372 -7.284,-0.747 -10.926,-1.11 -1.156,-0.116 -1.254,-0.596 -0.923,-1.684 0.605,-1.991 1.006,-4.05 1.383,-6.101 0.692,-3.756 1.268,-7.533 1.961,-11.289 0.823,-4.46 1.703,-8.909 2.589,-13.357 0.424,-2.136 0.938,-4.255 1.381,-6.388 0.758,-3.65 1.685,-7.278 2.177,-10.965 0.456,-3.409 0.991,-3.919 4.1,-2.327 8.197,4.199 16.358,8.468 24.535,12.708 8.502,4.409 16.999,8.826 25.508,13.222 9.575,4.948 19.153,9.891 28.748,14.801 2.054,1.051 4.234,1.857 6.271,2.936 5.445,2.884 10.809,5.921 16.27,8.77 5.479,2.86 11.042,5.558 16.552,8.359 0.4,0.203 0.668,0.668 0.997,1.011 -0.427,0.097 -0.863,0.307 -1.278,0.274 -3.464,-0.282 -6.92,-0.669 -10.386,-0.91 -5.04,-0.351 -10.087,-0.616 -15.132,-0.902 -5.691,-0.32 -11.383,-0.622 -17.074,-0.932 -0.092,-0.005 -0.185,-0.012 -0.277,-0.023 -4.991,-0.583 -9.97,-1.327 -14.975,-1.71 -6.23,-0.475 -12.481,-0.652 -18.723,-0.962 -0.462,-0.023 -0.923,-0.07 -1.382,-0.123 -4.816,-0.551 -9.629,-1.15 -14.451,-1.648 -3.642,-0.375 -7.293,-0.682 -10.947,-0.911 -5.325,-0.335 -10.655,-0.573 -15.982,-0.853 m -197.283,60.302 c 0.025,-0.104 0.052,-0.206 0.077,-0.31 1.672,0.402 3.324,0.959 5.02,1.172 3.356,0.421 6.742,0.61 10.107,0.975 2.631,0.285 5.256,0.65 7.872,1.054 3.236,0.5 6.45,1.138 9.691,1.599 2.98,0.424 5.988,0.658 8.975,1.041 2.257,0.29 4.502,0.672 6.748,1.032 3.226,0.519 6.437,1.137 9.674,1.563 3.177,0.417 6.382,0.611 9.566,0.974 2.173,0.247 4.341,0.567 6.497,0.942 2.955,0.515 5.88,1.222 8.848,1.644 3.165,0.45 6.367,0.629 9.546,0.994 2.263,0.259 4.521,0.592 6.77,0.958 3.316,0.539 6.611,1.224 9.937,1.681 3.171,0.436 6.375,0.627 9.558,0.985 2.082,0.233 4.165,0.509 6.222,0.897 0.652,0.123 1.224,0.671 1.832,1.025 -0.405,0.524 -0.703,1.224 -1.231,1.545 -3.525,2.144 -7.088,4.226 -10.661,6.292 -7.858,4.542 -15.733,9.059 -23.597,13.595 -7.708,4.446 -15.408,8.905 -23.114,13.354 -7.867,4.542 -15.731,9.092 -23.609,13.614 -6.124,3.516 -12.267,6.999 -18.415,10.473 -0.364,0.204 -0.852,0.186 -1.282,0.272 -0.05,-0.49 -0.185,-0.99 -0.132,-1.468 0.122,-1.078 0.485,-2.145 0.491,-3.218 0.042,-8.435 -0.019,-16.871 0.041,-25.306 0.028,-3.924 -0.703,-7.608 -2.631,-11.06 -0.985,-1.764 -1.974,-3.559 -2.674,-5.446 -2.511,-6.763 -5.98,-12.951 -10.709,-18.403 -1.361,-1.57 -2.902,-2.984 -4.372,-4.459 -1.915,-1.922 -3.855,-3.82 -5.753,-5.759 -0.761,-0.777 -1.439,-1.637 -2.155,-2.459 0.861,0.069 1.723,0.139 2.585,0.206 0.093,0.007 0.185,0.001 0.278,0.001 m -19.851,32.905 c 0.04,0.011 0.079,0.02 0.118,0.03 0,1.109 0.117,2.234 -0.021,3.326 -0.515,4.054 -1.046,8.109 -1.701,12.142 -0.762,4.69 -0.433,9.493 -3.429,13.84 -4.142,6.008 -7.474,12.569 -11.336,18.779 -4.825,7.76 -9.924,15.35 -14.738,23.117 -3.854,6.216 -7.449,12.592 -11.183,18.884 -1.196,2.017 -2.776,1.986 -3.817,-0.151 -1.927,-3.953 -3.687,-7.985 -5.599,-11.945 -5.35,-11.088 -10.714,-22.17 -16.131,-33.225 -2.753,-5.619 -5.671,-11.159 -8.401,-16.789 -0.305,-0.632 -1.671,-1.515 -0.003,-2.488 3.643,-2.122 7.158,-4.46 10.762,-6.649 5.952,-3.616 11.934,-7.182 17.9,-10.774 3.06,-1.842 6.126,-3.675 9.168,-5.546 4.834,-2.974 9.643,-5.989 14.477,-8.963 3.744,-2.304 7.509,-4.573 11.267,-6.85 4.543,-2.753 9.083,-5.511 13.648,-8.226 0.418,-0.249 1.006,-0.209 1.515,-0.303 0.103,0.604 0.345,1.223 0.283,1.809 -0.192,1.798 -0.529,3.579 -0.749,5.374 -0.113,0.915 -0.016,1.857 -0.154,2.766 -0.596,3.952 -1.246,7.896 -1.876,11.842 M -1918.43,121.133 c -0.18,0.472 -0.362,0.95 -0.545,1.429 -0.442,-0.276 -0.947,-0.484 -1.317,-0.835 -6.697,-6.363 -13.42,-12.698 -20.053,-19.127 -11.954,-11.59 -23.871,-23.219 -35.764,-34.871 -5.428,-5.318 -10.86,-10.638 -16.099,-16.139 -2.464,-2.587 -3.014,-4.727 -0.07,-6.944 1.756,-1.323 3.481,-2.7 5.108,-4.176 4.094,-3.714 8.132,-7.49 12.177,-11.256 4.52,-4.21 9.031,-8.43 13.533,-12.658 5.381,-5.055 10.834,-10.037 16.072,-15.236 1.732,-1.718 3.088,-0.331 4.566,-0.078 0.57,0.098 1.293,0.928 1.449,1.55 1.328,5.268 2.475,10.581 3.805,15.849 1.372,5.431 2.952,10.809 4.321,16.242 1.062,4.215 1.903,8.485 2.905,12.717 1.416,5.978 3.045,11.912 4.293,17.924 1.123,5.414 2.028,10.887 2.706,16.374 0.561,4.544 0.655,9.146 0.949,13.722 0.27,4.201 -0.237,8.378 0.771,12.628 0.98,4.133 -0.69,8.644 1.193,12.885 m -49.472,63.453 c -1.389,-0.388 -3.651,-0.943 -5.854,-1.677 -0.736,-0.245 -1.279,-1.019 -1.983,-1.426 -4.533,-2.621 -9.057,-5.261 -13.641,-7.792 -9.002,-4.971 -18.043,-9.871 -27.063,-14.809 -3.143,-1.72 -6.381,-3.308 -9.338,-5.309 -0.802,-0.542 -0.87,-2.356 -1.001,-3.615 -0.056,-0.534 0.489,-1.535 0.937,-1.652 2.811,-0.737 5.662,-1.334 8.519,-1.878 2.412,-0.46 4.867,-0.706 7.275,-1.19 3.741,-0.75 7.442,-1.707 11.19,-2.417 3.934,-0.744 7.917,-1.232 11.855,-1.958 4.288,-0.79 8.544,-1.751 12.823,-2.586 2.06,-0.402 4.154,-0.631 6.214,-1.035 4.191,-0.822 8.371,-1.706 12.554,-2.571 2.486,-0.514 4.965,-1.06 7.455,-1.554 2.053,-0.407 4.122,-0.731 6.174,-1.142 3.92,-0.787 7.821,-1.679 11.754,-2.393 3.238,-0.587 6.506,-1.037 9.777,-1.396 0.492,-0.054 1.344,0.603 1.571,1.129 1.008,2.334 1.905,4.721 2.741,7.124 2.98,8.566 5.902,17.151 8.881,25.717 1.463,4.208 3.01,8.387 4.502,12.585 1.06,2.986 0.27,4.007 -2.844,4.159 -4.575,0.224 -9.141,0.615 -13.711,0.936 -0.183,0.014 -0.365,0.055 -0.548,0.08 -4.056,0.556 -8.097,1.289 -12.171,1.626 -5.855,0.483 -11.735,0.679 -17.604,0.998 -0.185,0.01 -0.371,0.017 -0.554,0.038 -5.629,0.63 -11.257,1.261 -17.91,2.008 m 648.242,-63.324 c 0.185,0.241 0.597,0.54 0.662,0.902 0.371,2.057 0.716,4.121 0.964,6.195 0.626,5.249 1.205,10.504 1.787,15.758 0.614,5.529 1.211,11.06 1.813,16.591 0.61,5.618 1.286,11.23 1.803,16.857 0.403,4.384 0.578,8.789 0.918,13.179 0.097,1.252 0.526,2.48 0.586,3.729 0.024,0.512 -0.415,1.377 -0.838,1.525 -2.842,0.997 -5.711,1.936 -8.619,2.716 -3.509,0.941 -7.067,1.698 -10.6,2.549 -2.66,0.642 -5.3,1.379 -7.977,1.946 -4.81,1.021 -9.659,1.866 -14.457,2.937 -3.726,0.833 -7.391,1.94 -11.11,2.81 -0.515,0.12 -1.426,-0.253 -1.75,-0.694 -2.86,-3.901 -5.632,-7.866 -8.424,-11.818 -2.791,-3.95 -5.606,-7.884 -8.351,-11.867 -2.594,-3.763 -5.054,-7.619 -7.676,-11.36 -3.362,-4.795 -6.786,-9.547 -10.27,-14.253 -1.226,-1.656 -0.82,-2.69 0.879,-3.437 1.76,-0.774 3.57,-1.435 5.34,-2.187 7.926,-3.369 15.846,-6.754 23.769,-10.131 6.245,-2.662 12.5,-5.302 18.735,-7.986 9.012,-3.881 18.005,-7.803 27.018,-11.681 1.844,-0.794 3.736,-1.474 5.798,-2.28 m -707.187,15.343 c -0.149,-4.519 -0.4,-8.99 2.399,-13.052 1.099,-1.596 1.424,-3.722 2.112,-5.603 1.876,-5.125 3.746,-10.252 5.642,-15.369 2.017,-5.447 4.078,-10.878 6.088,-16.327 1.697,-4.602 3.309,-9.236 5.029,-13.829 2.489,-6.647 5.166,-13.225 7.48,-19.93 0.589,-1.705 0.769,-1.479 1.798,-0.531 2.909,2.681 5.933,5.239 8.803,7.96 7.242,6.864 14.415,13.801 21.632,20.691 6.009,5.738 12.066,11.426 18.057,17.182 8.734,8.391 17.432,16.819 26.123,25.254 0.418,0.405 0.958,1.146 0.832,1.531 -0.151,0.467 -0.912,0.911 -1.481,1.036 -3.109,0.682 -6.233,1.3 -9.364,1.869 -5.282,0.96 -10.592,1.772 -15.853,2.826 -5.164,1.035 -10.268,2.374 -15.428,3.435 -6.23,1.282 -12.496,2.395 -18.74,3.612 -6.071,1.185 -12.131,2.429 -18.202,3.612 -6.338,1.233 -12.683,2.428 -19.026,3.631 -1.703,0.322 -3.408,0.639 -5.12,0.9 -1.902,0.289 -2.994,-0.255 -2.817,-2.504 0.166,-2.119 0.036,-4.261 0.036,-6.394 M 273.535,186.47 c 0,18.265 0.004,36.53 -0.004,54.795 -0.001,2.519 -0.039,2.513 -2.161,1.53 -2.914,-1.351 -5.852,-2.647 -8.766,-3.997 -8.418,-3.899 -16.832,-7.81 -25.243,-11.724 -8.999,-4.188 -18.003,-8.366 -26.987,-12.585 -6.829,-3.207 -13.628,-6.477 -20.444,-9.712 -4.899,-2.324 -9.802,-4.639 -14.705,-6.955 -1.28,-0.604 -2.251,-0.947 -0.249,-2.208 4.103,-2.586 7.982,-5.525 12.004,-8.243 11.17,-7.548 22.373,-15.048 33.55,-22.585 11.084,-7.474 22.14,-14.989 33.235,-22.447 6.082,-4.088 12.234,-8.071 18.314,-12.161 1.076,-0.725 1.463,-0.638 1.462,0.663 0,0.555 -0.007,1.112 -0.007,1.669 0,17.986 0,35.973 0.001,53.96 M 155.308,40.954 c 5.114,-0.559 10.973,0.564 16.243,4.784 4.927,3.946 10.266,7.385 15.498,10.94 8.254,5.608 16.568,11.126 24.857,16.68 2.06,1.38 2.301,2.447 0.929,4.409 -4.238,6.061 -8.524,12.09 -12.724,18.178 -3.056,4.431 -6.002,8.94 -9.007,13.407 -2.501,3.719 -4.971,7.46 -7.537,11.134 -3.922,5.62 -7.952,11.166 -11.867,16.792 -3.91,5.619 -7.732,11.3 -11.602,16.947 -0.186,0.271 -0.462,0.481 -0.696,0.719 -0.159,-0.291 -0.34,-0.572 -0.473,-0.874 -2.839,-6.448 -5.654,-12.906 -8.514,-19.344 -1.899,-4.276 -3.953,-8.485 -5.775,-12.791 -2.351,-5.555 -4.438,-11.221 -6.827,-16.758 -2.242,-5.196 -4.78,-10.263 -7.096,-15.427 -3.374,-7.519 -6.633,-15.089 -10.004,-22.609 -3.19,-7.114 -6.472,-14.187 -9.692,-21.287 -0.906,-2 -1.696,-4.052 -2.618,-6.044 -0.519,-1.124 -0.204,-1.618 0.96,-1.48 1.629,0.192 3.235,0.625 4.866,0.741 5.597,0.4 11.182,-0.006 16.833,0.75 7.554,1.011 15.274,0.78 24.246,1.133 m -788.014,9.796 c 0,17.248 10e-4,34.497 -10e-4,51.745 0,0.742 0.102,1.513 -0.07,2.214 -0.103,0.422 -0.604,0.999 -0.994,1.059 -2.616,0.397 -5.247,0.695 -7.877,0.981 -1.01,0.11 -2.049,0.003 -3.045,0.168 -3.047,0.504 -6.065,1.207 -9.122,1.615 -3.354,0.447 -6.745,0.612 -10.111,0.978 -2.269,0.247 -4.523,0.627 -6.783,0.953 -3.873,0.558 -7.74,1.16 -11.619,1.672 -2.987,0.394 -5.994,0.636 -8.982,1.021 -4.071,0.527 -8.13,1.13 -12.197,1.692 -0.549,0.075 -1.11,0.061 -1.656,0.149 -3.406,0.547 -6.801,1.182 -10.218,1.649 -3.082,0.422 -6.204,0.564 -9.28,1.018 -5.401,0.797 -10.769,1.833 -16.176,2.587 -3.53,0.492 -7.105,0.661 -10.66,0.983 -0.504,0.045 -1.003,0.14 -1.505,0.211 0.301,-0.44 0.547,-0.933 0.91,-1.314 6.31,-6.624 12.637,-13.231 18.952,-19.848 6.249,-6.548 12.487,-13.105 18.734,-19.656 6.245,-6.549 12.489,-13.099 18.744,-19.638 6.834,-7.144 13.687,-14.269 20.517,-21.417 5.809,-6.077 11.583,-12.186 17.395,-18.259 7.606,-7.945 15.231,-15.873 22.864,-23.792 0.498,-0.518 1.126,-0.913 1.694,-1.364 0.163,0.764 0.465,1.528 0.466,2.291 0.027,17.434 0.021,34.867 0.02,52.302 m -379.479,-141.348 c -0.169,-0.029 -0.337,-0.057 -0.506,-0.087 0.415,-2.041 1.342,-4.136 1.132,-6.111 -0.383,-3.609 1.555,-5.035 4.407,-5.904 0.716,-0.219 1.822,-0.201 2.355,0.214 1.746,1.36 3.371,2.892 4.935,4.465 11.96,12.037 23.898,24.096 35.838,36.153 57.946,58.51 115.889,117.02 173.836,175.53 6.002,6.062 12.107,12.028 17.945,18.245 1.217,1.295 2.531,3.994 1.972,5.202 -2.414,5.223 -5.594,10.085 -8.333,15.167 -5.226,9.696 -10.321,19.463 -15.508,29.182 -4.147,7.77 -8.371,15.5 -12.523,23.268 -5.062,9.473 -10.079,18.97 -15.129,28.45 -2.158,4.053 -4.368,8.078 -6.519,12.134 -4.901,9.239 -9.765,18.498 -14.675,27.732 -2.285,4.298 -4.666,8.546 -6.964,12.838 -4.722,8.819 -9.412,17.655 -14.125,26.48 -2.205,4.13 -4.455,8.236 -6.64,12.376 -3.605,6.826 -7.16,13.68 -10.766,20.506 -1.068,2.021 -2.296,3.958 -3.344,5.987 -1.393,2.695 -3.302,5.324 -3.857,8.2 -0.666,3.444 -2.876,4.929 -5.414,6.396 -0.519,0.3 -1.33,0.169 -1.999,0.124 -4.035,-0.27 -5.046,-4.028 -7.001,-6.471 -3.582,-4.478 -6.6,-9.403 -9.958,-14.067 -3.521,-4.89 -7.222,-9.651 -10.739,-14.543 -3.36,-4.673 -6.51,-9.497 -9.888,-14.156 -4.407,-6.079 -8.986,-12.031 -13.418,-18.091 -4.511,-6.169 -8.878,-12.442 -13.402,-18.6 -13.007,-17.709 -26.06,-35.383 -39.099,-53.068 -10.289,-13.955 -20.595,-27.898 -30.858,-41.873 -0.89,-1.211 -1.204,-1.401 -2.236,0.014 -3.172,4.356 -6.662,8.479 -9.885,12.8 -4.876,6.535 -9.596,13.187 -14.447,19.742 -6.208,8.388 -12.521,16.7 -18.717,25.098 -21.635,29.318 -43.24,58.659 -64.855,87.992 -5.171,7.016 -10.397,13.991 -15.469,21.078 -1.216,1.699 -2.374,1.76 -3.932,0.84 -1.813,-1.071 -0.925,-2.418 -0.162,-3.506 1.996,-2.848 4.174,-5.568 6.205,-8.393 2.827,-3.932 5.57,-7.925 8.384,-11.868 1.752,-2.456 3.557,-4.876 5.358,-7.297 2.89,-3.884 5.818,-7.739 8.688,-11.637 2.109,-2.865 4.143,-5.785 6.222,-8.672 2.775,-3.855 5.563,-7.702 8.342,-11.555 1.874,-2.598 3.732,-5.208 5.615,-7.799 2.95,-4.061 5.941,-8.091 8.867,-12.168 2.396,-3.339 4.667,-6.77 7.097,-10.083 2.87,-3.915 5.904,-7.708 8.772,-11.623 3.776,-5.157 7.443,-10.394 11.188,-15.573 2.57,-3.554 5.226,-7.047 7.786,-10.608 2.824,-3.929 5.532,-7.942 8.386,-11.85 2.859,-3.915 5.884,-7.71 8.748,-11.623 2.91,-3.974 5.717,-8.024 8.558,-12.048 0.631,-0.894 1.319,-1.772 1.785,-2.75 0.276,-0.58 2.62,-1.095 0.328,-1.948 -0.985,-0.368 -2.202,-0.111 -3.313,-0.144 -0.089,-0.002 -0.174,-0.067 -0.264,-0.085 -4.364,-0.851 -8.712,-1.8 -13.098,-2.521 -4.497,-0.74 -9.034,-1.232 -13.546,-1.883 -1.978,-0.285 -3.946,-0.66 -5.906,-1.053 -4.007,-0.804 -7.987,-1.762 -12.015,-2.442 -4.491,-0.758 -9.024,-1.259 -13.534,-1.909 -1.985,-0.286 -3.964,-0.63 -5.934,-1.008 -2.669,-0.513 -5.312,-1.164 -7.991,-1.608 -2.612,-0.433 -5.269,-0.595 -7.882,-1.028 -4.932,-0.816 -9.846,-1.746 -14.77,-2.62 -2.155,-0.383 -4.318,-0.719 -6.47,-1.122 -2.671,-0.5 -5.324,-1.113 -8.004,-1.554 -2.609,-0.429 -5.257,-0.623 -7.864,-1.062 -4.749,-0.799 -9.476,-1.72 -14.218,-2.557 -2.245,-0.396 -4.511,-0.672 -6.753,-1.084 -2.676,-0.491 -5.325,-1.147 -8.009,-1.588 -2.608,-0.429 -5.253,-0.632 -7.869,-1.018 -1.976,-0.291 -3.936,-0.7 -5.898,-1.082 -2.587,-0.503 -5.157,-1.101 -7.756,-1.532 -4.22,-0.701 -8.471,-1.222 -12.685,-1.961 -4.378,-0.769 -8.709,-1.817 -13.094,-2.542 -4.496,-0.744 -9.038,-1.214 -13.551,-1.864 -2.068,-0.298 -4.116,-0.735 -6.172,-1.117 -2.765,-0.513 -5.531,-1.015 -8.29,-1.554 -1.699,-0.331 -3.52,-0.451 -5.024,-1.194 -0.774,-0.383 -1.39,-1.959 -1.305,-2.928 0.068,-0.769 1.199,-1.773 2.061,-2.056 0.977,-0.319 2.197,-0.055 3.28,0.135 6.069,1.067 12.118,2.248 18.194,3.269 4.43,0.743 8.909,1.189 13.333,1.961 6.192,1.078 12.337,2.428 18.531,3.485 4.495,0.767 9.044,1.21 13.559,1.867 2.157,0.315 4.289,0.8 6.435,1.192 2.769,0.504 5.535,1.029 8.313,1.479 2.519,0.408 5.066,0.654 7.578,1.103 4.381,0.781 8.729,1.754 13.118,2.478 4.496,0.74 9.028,1.264 13.539,1.911 1.897,0.271 3.791,0.572 5.672,0.933 4.367,0.837 8.709,1.823 13.093,2.554 4.493,0.749 9.027,1.247 13.539,1.894 1.981,0.283 3.955,0.629 5.922,1.004 4.368,0.833 8.712,1.804 13.098,2.529 4.491,0.742 9.025,1.235 13.532,1.886 1.982,0.287 3.95,0.677 5.918,1.05 4.373,0.828 8.726,1.768 13.116,2.488 4.499,0.736 9.035,1.241 13.547,1.893 1.978,0.285 3.94,0.679 5.907,1.032 3.753,0.673 7.501,1.368 11.262,1.991 0.24,0.04 0.776,-0.421 0.824,-0.708 0.362,-2.153 0.752,-4.312 0.915,-6.486 0.378,-5.029 0.631,-10.068 0.939,-15.102 0.017,-0.276 0.064,-0.551 0.101,-0.825 0.565,-4.142 1.284,-8.269 1.657,-12.427 0.466,-5.206 0.648,-10.438 0.953,-15.659 0.011,-0.184 0.023,-0.37 0.048,-0.553 0.578,-4.234 1.298,-8.455 1.7,-12.706 0.466,-4.924 0.652,-9.876 0.961,-14.815 0.012,-0.185 0.039,-0.368 0.062,-0.551 0.572,-4.601 1.256,-9.193 1.687,-13.808 0.45,-4.833 0.657,-9.689 0.972,-14.535 0.012,-0.184 0.046,-0.367 0.07,-0.55 0.565,-4.421 1.246,-8.832 1.667,-13.267 0.451,-4.744 0.657,-9.512 0.971,-14.269 0.01,-0.092 0.021,-0.184 0.033,-0.276 0.582,-4.509 1.298,-9.005 1.712,-13.529 0.451,-4.934 0.623,-9.894 0.918,-14.842 0.011,-0.185 0.029,-0.369 0.054,-0.553 0.591,-4.318 1.336,-8.622 1.734,-12.958 0.462,-5.026 0.619,-10.08 0.909,-15.123 0.016,-0.277 0.025,-0.556 0.064,-0.831 0.585,-4.135 1.331,-8.254 1.723,-12.407 0.465,-4.927 0.628,-9.882 0.923,-14.825 0.011,-0.186 0.023,-0.37 0.047,-0.555 0.584,-4.511 1.299,-9.009 1.722,-13.535 0.46,-4.928 0.65,-9.881 0.959,-14.823 0.011,-0.185 0.029,-0.371 0.052,-0.554 0.636,-5.063 1.273,-10.124 1.91,-15.187 m -593.112,94.901 c -0.095,-0.212 -0.19,-0.424 -0.285,-0.635 0.073,-0.026 0.146,-0.053 0.219,-0.079 0.011,0.236 0.023,0.472 0.034,0.707 -0.771,2.139 -1.511,4.288 -2.317,6.413 -3.744,9.859 -7.506,19.713 -11.262,29.568 -0.974,2.556 -2.074,3.04 -4.651,2.12 -2.24,-0.8 -4.471,-1.64 -6.753,-2.307 -5.949,-1.739 -11.936,-3.353 -17.885,-5.092 -6.481,-1.895 -12.94,-3.865 -19.395,-5.845 -0.429,-0.131 -0.748,-0.615 -1.118,-0.934 0.418,-0.281 0.802,-0.645 1.259,-0.826 3.395,-1.352 6.81,-2.652 10.208,-3.998 3.402,-1.348 6.772,-2.779 10.188,-4.089 6.995,-2.684 14.028,-5.271 21.014,-7.975 6.051,-2.342 12.046,-4.828 18.106,-7.144 0.761,-0.291 1.772,0.072 2.638,0.116 m 603.946,409.277 c 0.621,-0.372 1.212,-0.997 1.868,-1.075 3.448,-0.41 6.931,-0.558 10.37,-1.032 5.407,-0.746 10.792,-1.661 16.179,-2.542 3.772,-0.616 7.561,-1.169 11.293,-1.977 3.74,-0.81 7.461,-1.761 11.113,-2.899 7.05,-2.2 14.064,-4.523 21.058,-6.898 3.629,-1.232 7.279,-2.476 10.752,-4.079 7.854,-3.625 15.776,-7.162 23.349,-11.322 7.78,-4.273 15.345,-8.995 22.691,-13.98 6.504,-4.414 12.537,-9.517 18.854,-14.212 11.043,-8.208 20.429,-18.214 29.711,-28.212 6.82,-7.347 13.341,-15.105 18.671,-23.73 3.695,-5.979 7.921,-11.643 11.407,-17.736 5.287,-9.241 10.44,-18.586 15.069,-28.167 3.275,-6.78 5.668,-13.994 8.306,-21.071 2.155,-5.782 4.253,-11.597 6.068,-17.492 1.249,-4.056 1.974,-8.274 2.931,-12.419 0.854,-3.702 1.742,-7.397 2.545,-11.111 0.383,-1.773 0.632,-3.579 0.887,-5.377 0.385,-2.707 0.736,-5.418 1.079,-8.131 0.582,-4.605 1.159,-9.212 1.708,-13.821 0.098,-0.824 0.066,-1.666 0.066,-2.5 0.003,-12.241 0.028,-24.483 -0.026,-36.724 -0.009,-1.957 0.02,-3.215 2.645,-3.368 4.169,-0.243 8.31,-1.039 12.452,-1.666 3.329,-0.504 6.641,-1.118 9.965,-1.655 2.248,-0.363 4.496,-0.746 6.759,-0.997 3.274,-0.364 6.575,-0.514 9.841,-0.943 3.149,-0.414 6.266,-1.072 9.4,-1.606 0.635,-0.108 1.286,-0.113 1.925,-0.204 3.963,-0.569 7.923,-1.167 11.889,-1.715 2.441,-0.337 4.89,-0.629 7.34,-0.892 3.277,-0.351 6.568,-0.578 9.833,-1.003 3.157,-0.411 6.291,-1.005 9.433,-1.521 0.453,-0.074 0.902,-0.183 1.358,-0.233 5.624,-0.628 11.258,-1.172 16.87,-1.899 3.242,-0.42 6.445,-1.145 9.671,-1.707 2.76,-0.479 3.312,0.032 3.313,3.065 0.003,47.297 0.002,94.595 0.002,141.892 0,0.741 -0.19,1.557 0.058,2.204 0.235,0.615 0.842,1.298 1.443,1.511 0.743,0.265 1.647,0.081 2.482,0.081 34.685,0.001 69.369,-0.055 104.053,0.073 4.339,0.016 8.45,-0.954 12.361,-2.253 6.149,-2.042 12.285,-4.479 17.893,-7.681 5.355,-3.058 10.891,-6.034 15.29,-10.657 4.931,-5.178 9.343,-10.678 12.248,-17.23 1.956,-4.411 3.608,-8.959 5.324,-13.474 0.25,-0.656 -0.101,-1.55 0.172,-2.186 0.514,-1.199 1.001,-2.739 1.987,-3.348 4.608,-2.846 9.403,-5.386 14.09,-8.104 7.061,-4.094 14.078,-8.262 21.134,-12.365 4.206,-2.447 8.454,-4.823 12.678,-7.242 8.436,-4.834 16.855,-9.698 25.307,-14.506 8.774,-4.991 17.582,-9.925 26.367,-14.896 1.917,-1.085 3.788,-2.25 5.715,-3.314 0.434,-0.239 1.017,-0.207 1.532,-0.3 0.043,0.527 0.241,1.097 0.106,1.574 -1.989,7.056 -4.073,14.087 -6.032,21.151 -2.133,7.691 -4.158,15.412 -6.233,23.118 -2.099,7.796 -4.225,15.585 -6.25,23.4 -0.137,0.527 0.329,1.369 0.753,1.856 4.472,5.128 9.019,10.191 13.491,15.319 3.677,4.217 7.313,8.473 10.909,12.761 2.529,3.017 5.433,5.863 7.264,9.271 1.196,2.227 3.095,3.405 4.537,5.172 1.242,1.522 2.532,1.448 4.023,0.104 4.986,-4.492 10.042,-8.907 15.095,-13.324 4.501,-3.934 9.006,-7.865 13.562,-11.734 3.145,-2.671 6.463,-5.142 9.553,-7.874 2.748,-2.43 3.452,-2.703 1.935,-6.316 -0.105,-0.248 -0.115,-0.543 -0.134,-0.819 -0.333,-4.676 -0.562,-9.363 -1.02,-14.028 -0.41,-4.171 -1.072,-8.317 -1.621,-12.475 -0.049,-0.367 -0.097,-0.735 -0.124,-1.105 -0.308,-4.4 -0.502,-8.812 -0.953,-13.198 -0.41,-3.982 -1.118,-7.933 -1.65,-11.904 -0.135,-1.007 -0.13,-2.036 -0.131,-3.054 -0.006,-21.701 -10e-4,-43.402 -0.012,-65.103 -10e-4,-1.508 0.09,-2.588 1.755,-3.596 5.402,-3.272 10.603,-6.881 15.831,-10.433 6.057,-4.115 12.013,-8.382 18.124,-12.411 1.452,-0.957 3.357,-1.746 5.046,-1.729 6.068,0.058 12.136,0.45 18.197,0.806 3.47,0.204 6.929,0.6 10.395,0.881 4.02,0.326 8.043,0.623 12.064,0.931 3.839,0.292 7.678,0.578 11.516,0.873 3.926,0.302 7.85,0.612 11.776,0.919 3.926,0.306 7.852,0.616 11.778,0.918 3.839,0.295 7.686,0.516 11.516,0.905 1.624,0.165 3.408,0.347 4.75,1.143 0.881,0.522 1.162,2.135 1.609,3.3 1.889,4.932 3.74,9.879 5.606,14.821 1.444,3.826 2.89,7.651 4.336,11.476 1.737,4.595 3.486,9.185 5.212,13.783 2.206,5.881 4.363,11.78 6.597,17.65 2.171,5.704 4.45,11.368 6.614,17.075 2.028,5.35 3.93,10.747 5.96,16.095 1.711,4.509 3.568,8.962 5.284,13.469 2.2,5.782 4.29,11.607 6.491,17.389 1.651,4.332 3.452,8.606 5.096,12.94 2.256,5.945 4.4,11.933 6.64,17.884 1.924,5.11 3.928,10.189 5.872,15.291 1.975,5.188 6.565,8.164 10.261,11.835 1.336,1.327 3.515,-0.063 4.874,-1.138 2.738,-2.166 5.29,-4.571 7.859,-6.942 0.513,-0.474 0.849,-1.206 1.108,-1.881 2.016,-5.258 4.008,-10.525 5.977,-15.802 1.588,-4.258 3.12,-8.537 4.7,-12.799 1.673,-4.516 3.386,-9.018 5.056,-13.535 1.705,-4.606 3.393,-9.217 5.06,-13.836 2.311,-6.404 4.522,-12.844 6.91,-19.218 2.49,-6.645 5.204,-13.207 7.7,-19.851 1.726,-4.594 3.12,-9.316 4.893,-13.89 2.03,-5.235 3.848,-10.434 8.158,-14.646 5.09,-4.973 9.284,-10.861 13.888,-16.335 1.949,-2.318 3.925,-4.617 5.94,-6.878 2.878,-3.23 5.883,-6.35 8.694,-9.636 4.53,-5.296 8.945,-10.688 13.41,-16.039 2.583,-3.095 4.933,-6.437 7.847,-9.18 1.463,-1.376 3.923,-1.754 5.983,-2.425 7.373,-2.399 14.767,-4.732 22.155,-7.087 6.603,-2.104 13.204,-4.211 19.812,-6.301 5.914,-1.87 11.833,-3.729 17.757,-5.57 2.581,-0.803 2.588,-0.776 2.599,2.059 0.001,0.278 0,0.555 0,0.834 0,66.958 0.011,133.916 -0.035,200.873 -0.002,2.675 0.657,4.863 2.636,6.682 0.517,0.476 0.794,1.216 1.173,1.84 2.485,4.088 6.897,3.989 9.595,0.066 1.871,-2.722 3.783,-5.415 6.002,-7.956 5.141,-5.885 11.74,-9.829 17.627,-14.701 4.948,-4.095 9.904,-8.184 14.947,-12.16 4.819,-3.8 9.786,-7.412 14.629,-11.182 3.402,-2.649 6.783,-5.337 10.009,-8.191 1.054,-0.933 1.756,-0.954 2.889,-0.406 5.711,2.765 11.441,5.492 17.185,8.188 8.658,4.065 17.326,8.107 26.002,12.132 8.252,3.828 16.528,7.606 24.778,11.436 9.173,4.257 18.291,8.636 27.519,12.77 2.706,1.212 5.218,2.219 5.647,5.623 0.065,0.523 0.844,0.943 1.261,1.438 1.416,1.678 2.844,3.348 4.217,5.06 1.022,1.274 2.038,1.257 2.91,-0.029 1.435,-2.114 2.755,-4.305 4.124,-6.463 v -261.54 c -2.62,-4.95 -7.262,-5.274 -10.372,-0.85 -0.67,0.953 -1.961,1.946 -3.046,2.046 -5.4,0.5 -10.827,0.708 -16.245,1.014 -0.647,0.037 -1.3,0.008 -1.944,0.069 -5.746,0.545 -11.482,1.253 -17.24,1.622 -7.546,0.483 -15.11,0.702 -22.664,1.034 -0.186,0.008 -0.371,0.012 -0.556,0.031 -5.741,0.567 -11.479,1.185 -17.227,1.689 -4.118,0.362 -8.249,0.579 -12.374,0.852 -4.776,0.315 -9.553,0.61 -14.329,0.939 -4.303,0.295 -8.603,0.652 -12.909,0.93 -4.774,0.31 -9.555,0.535 -14.329,0.845 -4.221,0.272 -8.435,0.662 -12.657,0.906 -6.341,0.367 -12.685,0.709 -19.031,0.95 -3.796,0.145 -3.787,0.049 -3.808,-3.687 -0.019,-3.173 0.498,-6.397 -1.846,-9.182 -2.358,-2.802 -4.387,-5.357 -8.123,-1.028 -0.713,0.826 -1.55,1.679 -2.512,2.127 -1.517,0.706 -1.938,1.754 -1.922,3.307 0.052,5.379 0.02,10.758 0.02,16.138 0,7.79 0.017,15.58 -0.01,23.37 -0.008,2.55 -0.173,2.618 -2.464,1.558 C 86.058,29.844 81.382,27.69 76.71,25.529 72.626,23.64 68.531,21.775 64.466,19.846 58.066,16.809 51.678,13.745 45.304,10.654 41.484,8.803 37.724,6.83 33.896,4.998 29.169,2.734 24.381,0.598 19.658,-1.674 c -1.354,-0.652 -1.793,-1.817 -1.014,-3.255 0.35,-0.647 0.686,-1.303 1.018,-1.961 1.197,-2.367 1.487,-4.743 0.442,-7.297 -0.799,-1.954 -2.502,-1.534 -3.955,-1.901 -0.409,-0.103 -0.76,-0.504 -1.097,-0.813 -1.168,-1.075 -2.226,-0.973 -3.421,0.057 -1.806,1.556 -3.571,3.257 -5.633,4.386 -1.782,0.977 -2.469,2.404 -2.942,4.08 -1.093,3.869 -2.632,4.998 -6.712,5.112 -14.145,0.395 -28.293,0.167 -42.448,0.548 -20.605,0.554 -41.271,1.161 -61.9,-0.466 -9.282,-0.732 -18.626,0.455 -27.949,-0.864 -4.913,-0.695 -10.001,-0.07 -15.006,-0.207 -6.726,-0.183 -13.45,-0.457 -20.163,-0.885 -0.913,-0.057 -2.385,-1.111 -2.528,-1.9 -1.013,-5.526 -5.791,-7.471 -9.542,-10.367 -0.424,-0.327 -1.522,-0.208 -2.066,0.112 -3.299,1.947 -4.585,5.703 -7.191,8.307 -0.316,0.314 0.122,1.533 0.398,2.262 1.255,3.319 2.614,6.598 3.868,9.917 2.185,5.778 4.286,11.587 6.491,17.357 1.69,4.426 3.536,8.792 5.225,13.219 2.174,5.698 4.258,11.43 6.387,17.146 1.492,4.009 3.013,8.007 4.475,12.026 0.233,0.641 0.221,1.372 0.323,2.06 -0.657,-0.19 -1.367,-0.279 -1.964,-0.588 -6.786,-3.51 -13.547,-7.069 -20.331,-10.584 -8.338,-4.32 -16.694,-8.605 -25.037,-12.913 -8.757,-4.521 -17.514,-9.042 -26.26,-13.582 -8.009,-4.158 -15.893,-8.577 -24.034,-12.455 -9.373,-4.465 -18.211,-10.055 -28.18,-13.292 -10.269,-3.335 -20.483,-6.843 -30.687,-10.375 -2.692,-0.932 -5.246,-1.773 -7.083,-4.634 -2.757,-4.294 -3.274,-4.054 -6.981,-0.386 -0.791,0.784 -1.537,1.617 -2.374,2.345 -0.469,0.408 -1.045,0.77 -1.635,0.947 -6.115,1.851 -12.23,3.7 -18.374,5.45 -1.457,0.414 -1.525,1.296 -1.022,2.284 0.661,1.299 1.582,2.465 2.37,3.701 4.074,6.394 8.049,12.854 12.248,19.165 2.686,4.036 5.132,8.023 4.113,13.177 -0.14,0.714 -0.121,1.497 -0.002,2.22 0.752,4.578 -1.629,7.872 -4.309,11.151 -2.312,2.827 -4.395,5.843 -6.551,8.797 -1.884,2.582 -3.717,5.201 -5.593,7.789 -2.949,4.069 -5.914,8.127 -8.876,12.188 -1.075,1.475 -1.866,3.429 -3.309,4.294 -1.787,1.072 -4.087,1.515 -6.217,1.739 -4.742,0.499 -9.516,0.691 -14.276,1.011 -0.184,0.012 -0.367,0.045 -0.55,0.071 -4.069,0.561 -8.124,1.252 -12.209,1.652 -4.747,0.463 -9.52,0.669 -14.281,0.988 -0.184,0.012 -0.369,0.031 -0.552,0.056 -4.158,0.568 -8.304,1.264 -12.477,1.673 -4.659,0.457 -9.344,0.653 -14.016,0.965 -0.185,0.012 -0.37,0.038 -0.552,0.064 -3.969,0.569 -7.923,1.286 -11.909,1.671 -4.755,0.46 -9.537,0.634 -14.308,0.932 -0.185,0.011 -0.37,0.012 -0.555,0.032 -5.535,0.594 -11.071,1.18 -16.604,1.796 -0.901,0.1 -1.811,0.255 -2.675,0.519 -2.202,0.673 -4.193,0.661 -5.727,-1.383 -2.253,-3.004 -4.545,-5.979 -6.769,-9.005 -1.945,-2.646 -3.793,-5.364 -5.731,-8.015 -2.319,-3.175 -4.835,-6.215 -6.998,-9.491 -2.114,-3.206 -4.642,-5.816 -7.942,-7.822 -6.966,-4.235 -13.916,-8.507 -20.714,-13.005 -11.306,-7.477 -22.467,-15.171 -33.723,-22.722 -11.642,-7.808 -23.276,-15.628 -35.041,-23.246 -1.897,-1.229 -2.879,-2.303 -2.703,-4.559 0.052,-0.663 -0.596,-1.496 -1.122,-2.069 -1.804,-1.969 -4.52,-2.81 -6.142,-5.115 -0.665,-0.947 -1.803,-0.716 -2.676,0.565 -1.024,1.503 -2.274,3.423 -3.81,3.881 -2.848,0.85 -4.405,2.969 -6.234,4.82 -2.515,2.545 -4.71,5.402 -7.168,8.005 -6.341,6.715 -12.752,13.365 -19.134,20.042 -6.255,6.545 -12.511,13.09 -18.762,19.638 -6.511,6.819 -13.019,13.64 -19.525,20.464 -6.117,6.415 -12.224,12.838 -18.344,19.252 -6.375,6.68 -12.741,13.372 -19.147,20.024 -5.842,6.066 -11.731,12.088 -17.608,18.12 -0.157,0.161 -0.521,0.351 -0.625,0.282 -0.188,-0.126 -0.329,-0.427 -0.358,-0.672 -0.598,-5.064 -1.125,-10.137 -1.775,-15.194 -0.534,-4.147 -1.17,-8.283 -1.84,-12.41 -0.29,-1.786 -0.735,-3.551 -1.189,-5.304 -0.747,-2.888 -1.564,-5.76 -2.344,-8.639 -1.349,-4.981 -2.596,-9.992 -4.075,-14.933 -0.833,-2.784 -2.014,-5.466 -3.086,-8.175 -2.85,-7.199 -5.371,-14.557 -8.685,-21.537 -3.614,-7.613 -7.759,-15 -12.069,-22.249 -4.106,-6.902 -8.528,-13.639 -13.168,-20.194 -4.647,-6.565 -9.446,-13.068 -14.717,-19.129 -4.934,-5.672 -10.516,-10.787 -15.92,-16.037 -4.101,-3.984 -8.346,-7.82 -12.573,-11.669 -2.243,-2.042 -4.46,-4.143 -6.903,-5.924 -5.908,-4.308 -11.811,-8.648 -17.959,-12.596 -7.165,-4.602 -14.422,-9.116 -21.945,-13.09 -7.874,-4.159 -16.054,-7.758 -24.21,-11.351 -4.417,-1.946 -9.063,-3.369 -13.608,-5.022 -1.545,-0.561 -3.071,-1.194 -4.65,-1.636 -4.917,-1.376 -9.842,-2.729 -14.789,-3.993 -4.486,-1.146 -8.977,-2.305 -13.517,-3.198 -4.196,-0.823 -8.453,-1.357 -12.696,-1.914 -4.883,-0.641 -9.787,-1.127 -14.669,-1.775 -0.867,-0.116 -1.672,-0.699 -2.505,-1.065 h -43.405 c -0.629,0.365 -1.231,0.985 -1.892,1.057 -6.092,0.671 -12.246,0.939 -18.281,1.933 -6.807,1.123 -13.526,2.811 -20.255,4.37 -6.196,1.434 -12.458,2.707 -18.509,4.624 -8.08,2.56 -16.101,5.395 -23.935,8.628 -8.319,3.431 -16.589,7.092 -24.513,11.34 -8.229,4.413 -16.189,9.392 -23.945,14.602 -6.529,4.387 -12.551,9.522 -18.88,14.215 -9.328,6.915 -17.215,15.371 -25.276,23.62 -4.941,5.057 -9.716,10.331 -14.061,15.901 -5.723,7.337 -11.084,14.97 -16.334,22.657 -2.675,3.917 -4.846,8.189 -7.108,12.376 -3.408,6.307 -7.026,12.532 -9.95,19.063 -3.529,7.888 -6.491,16.033 -9.568,24.117 -1.481,3.892 -2.759,7.87 -3.949,11.863 -1.214,4.077 -2.216,8.216 -3.294,12.333 -0.871,3.326 -1.795,6.641 -2.547,9.996 -0.477,2.128 -0.724,4.311 -0.998,6.479 -0.639,5.057 -1.245,10.118 -1.841,15.18 -0.32,2.716 -0.273,5.519 -0.955,8.137 -1.213,4.652 -0.69,9.332 -0.853,14.003 -0.013,0.393 -0.31,0.775 -0.475,1.162 -0.372,-0.225 -0.766,-0.422 -1.115,-0.68 -4.486,-3.319 -8.975,-6.634 -13.441,-9.978 -1.538,-1.151 -3.03,-2.367 -4.522,-3.578 -3.418,-2.775 -6.816,-5.576 -10.238,-8.346 -3.755,-3.04 -5.664,-7.411 -8.102,-11.369 -4.222,-6.852 -8.226,-13.841 -12.279,-20.798 -2.397,-4.114 -4.671,-8.299 -7.076,-12.41 -3.932,-6.719 -7.924,-13.404 -11.893,-20.102 -0.934,-1.577 -2.193,-3.045 -2.746,-4.743 -0.971,-2.978 -3.281,-4.173 -5.758,-5.507 -7.926,-4.269 -15.786,-8.664 -23.643,-13.061 -6.887,-3.854 -13.745,-7.76 -20.599,-11.674 -6.219,-3.549 -12.435,-7.105 -18.59,-10.762 -0.592,-0.352 -1.033,-1.433 -1.056,-2.19 -0.109,-3.614 -0.21,-7.242 0,-10.846 0.184,-3.162 -1.313,-5.389 -3.581,-7.067 -1.799,-1.33 -3.98,-2.149 -6.01,-3.156 -0.309,-0.154 -0.833,-0.269 -1.069,-0.114 -2.188,1.425 -4.872,2.519 -6.335,4.503 -1.341,1.818 -1.665,4.589 -1.873,6.99 -0.295,3.406 -0.133,6.858 -0.048,10.287 0.04,1.66 -0.396,2.718 -2.031,3.492 -8.482,4.022 -16.894,8.192 -25.357,12.256 -4.971,2.388 -9.988,4.679 -14.988,7.007 -4.333,2.017 -8.66,4.053 -13.023,6.003 -0.558,0.249 -1.406,0.234 -1.98,0.001 -7.121,-2.899 -14.177,-5.957 -21.326,-8.782 -9.012,-3.558 -18.113,-6.888 -27.138,-10.414 -5.284,-2.064 -10.478,-4.359 -15.743,-6.473 -5.173,-2.077 -10.345,-4.166 -15.591,-6.047 -4.453,-1.597 -5.016,-2.552 -3.349,-6.824 0.551,-1.414 1.753,-3.269 1.276,-4.248 -1.049,-2.156 -2.929,-3.927 -4.577,-5.757 -0.592,-0.657 -1.439,-1.196 -2.275,-1.489 -0.783,-0.275 -1.899,-0.498 -2.534,-0.145 -3.269,1.825 -5.971,4.126 -6.569,8.223 -0.204,1.391 -1.124,2.693 -1.798,3.995 -0.183,0.353 -0.63,0.739 -1.005,0.798 -2.435,0.378 -4.88,0.917 -7.328,0.951 -24.802,0.353 -49.603,0.621 -74.405,0.905 -2.411,0.027 -4.823,0.041 -7.234,-0.004 -14.968,-0.279 -29.982,0.031 -44.887,-1.093 -9.251,-0.697 -18.449,-0.212 -27.655,-0.695 -4.861,-0.256 -9.724,-0.521 -14.565,-0.995 -0.833,-0.082 -2.081,-1.12 -2.251,-1.908 -0.942,-4.369 -3.004,-7.85 -7.079,-9.874 -0.784,-0.39 -2.215,-0.678 -2.7,-0.261 -1.983,1.708 -3.809,3.628 -5.514,5.621 -1.939,2.268 -0.336,4.493 0.448,6.642 2.494,6.833 5.047,13.644 7.603,20.455 1.95,5.196 3.959,10.37 5.904,15.568 2.135,5.704 4.233,11.422 6.324,17.143 0.145,0.394 0.107,0.857 0.155,1.288 -0.51,0.014 -1.08,0.189 -1.519,0.021 -7.934,-3.039 -15.828,-6.184 -23.782,-9.168 -6.237,-2.34 -12.571,-4.418 -18.813,-6.744 -6.684,-2.491 -13.284,-5.203 -19.966,-7.695 -6.246,-2.33 -12.58,-4.426 -18.825,-6.758 -5.738,-2.143 -11.391,-4.511 -17.115,-6.69 -4.433,-1.687 -8.998,-3.052 -13.352,-4.913 -2.724,-1.165 -5.271,-2.836 -7.718,-4.54 -6.81,-4.738 -13.999,-8.817 -21.504,-12.301 -4.976,-2.311 -10.041,-4.531 -15.26,-6.178 -3.498,-1.104 -6.958,-2.351 -10.91,-2.326 -31.995,0.203 -63.991,0.113 -95.986,0.114 -3.442,10e-4 -3.447,0.006 -3.447,3.474 -10e-4,88.196 -10e-4,176.393 0,264.59 0,3.304 0.01,3.314 3.342,3.314 33.386,0.003 66.774,0.11 100.159,-0.135 4.145,-0.031 8.375,-1.652 12.391,-3.041 5.87,-2.032 11.709,-4.255 17.318,-6.909 3.856,-1.825 7.593,-4.171 10.868,-6.902 6.431,-5.364 12.755,-10.91 18.639,-16.86 4.031,-4.076 7.516,-8.778 10.74,-13.542 2.968,-4.384 5.566,-9.086 7.775,-13.901 2.799,-6.102 5.596,-12.24 6.975,-18.913 0.934,-4.517 2.42,-8.919 3.386,-13.43 0.609,-2.841 0.756,-5.784 1.036,-8.689 1.845,-19.108 0.603,-38.265 0.809,-57.399 0.047,-4.409 -1.032,-8.834 -1.63,-13.246 -0.281,-2.075 -0.545,-4.161 -0.998,-6.202 -1.038,-4.675 -2.12,-9.342 -3.323,-13.976 -0.506,-1.948 -0.3,-2.481 1.861,-2.5 5.193,-0.043 10.455,-0.551 15.567,0.094 12.652,1.599 25.364,-0.242 37.944,0.939 9.349,0.877 18.645,0.402 27.958,0.715 1.299,0.044 1.745,0.466 2.221,1.788 2.44,6.757 5.217,13.393 7.708,20.134 2.616,7.08 4.966,14.258 7.57,21.342 2.103,5.722 4.445,11.357 6.616,17.054 1.682,4.415 3.254,8.873 4.892,13.305 1.735,4.69 3.527,9.36 5.226,14.063 2.285,6.322 4.424,12.699 6.778,18.995 2.136,5.714 4.557,11.321 6.7,17.033 1.754,4.677 3.229,9.457 4.928,14.155 1.518,4.197 3.219,8.328 4.758,12.518 2.383,6.482 4.636,13.011 7.056,19.478 2.458,6.563 5.322,12.988 7.455,19.651 0.893,2.789 2.203,4.892 4.26,6.774 2.946,2.693 7.517,2.729 10.482,0.059 1.086,-0.978 2.312,-1.8 3.445,-2.729 0.418,-0.343 0.931,-0.726 1.096,-1.197 1.887,-5.392 3.637,-10.833 5.581,-16.203 2.043,-5.649 4.258,-11.236 6.395,-16.85 2.07,-5.435 4.143,-10.869 6.202,-16.308 2.094,-5.531 4.18,-11.065 6.257,-16.602 2.142,-5.707 4.252,-11.425 6.409,-17.126 2.03,-5.364 4.129,-10.703 6.15,-16.07 2.178,-5.782 4.268,-11.597 6.46,-17.374 1.644,-4.333 3.429,-8.612 5.079,-12.943 1.649,-4.33 3.187,-8.702 4.814,-13.04 1.598,-4.263 3.27,-8.497 4.867,-12.76 2.65,-7.074 5.197,-14.188 7.914,-21.236 2.784,-7.22 5.742,-14.373 8.576,-21.575 0.799,-2.031 1.411,-4.136 2.14,-6.197 0.48,-1.355 1.269,-1.506 2.567,-0.843 6.078,3.106 12.227,6.07 18.301,9.182 5.731,2.938 11.388,6.018 17.096,8.998 7.513,3.922 15.052,7.793 22.565,11.712 5.955,3.106 11.885,6.261 17.834,9.38 7.178,3.763 14.368,7.504 21.547,11.265 6.279,3.29 12.573,6.554 18.805,9.932 1.076,0.582 2.139,1.518 2.76,2.558 4.404,7.381 8.66,14.85 13.024,22.256 5.718,9.7 11.483,19.372 17.244,29.047 2.625,4.408 5.342,8.763 7.895,13.212 0.558,0.974 0.834,2.246 0.837,3.381 0.049,20.032 0.039,40.064 0.033,60.096 0,2.975 -0.018,2.993 -3.149,2.994 -28.564,0.005 -57.128,0.085 -85.691,-0.105 -3.425,-0.023 -5.305,1.573 -7.196,3.742 -0.715,0.82 -1.36,1.757 -1.8,2.746 -0.733,1.654 -0.908,3.31 0.444,4.869 5.062,5.842 5.046,5.856 12.707,5.856 63.992,0 127.983,-0.011 191.974,0.042 2.212,0.002 3.871,-0.518 5.356,-2.195 1.903,-2.148 3.973,-4.159 6.084,-6.106 1.396,-1.287 1.299,-2.353 -0.133,-3.372 -1.415,-1.007 -2.89,-1.936 -4.371,-2.846 -1.5,-0.921 -1.993,-1.962 -1.052,-3.674 3.886,-7.068 7.682,-14.186 11.518,-21.282 3.837,-7.097 7.584,-14.245 11.551,-21.269 3.779,-6.692 7.728,-13.29 11.717,-19.86 3.704,-6.103 7.555,-12.118 11.363,-18.157 0.198,-0.315 0.596,-0.503 0.901,-0.749 0.104,0.332 0.281,0.659 0.302,0.997 0.304,4.848 0.45,9.71 0.922,14.541 0.324,3.326 1.136,6.602 1.649,9.913 0.403,2.607 0.569,5.254 1.045,7.846 0.701,3.826 1.563,7.624 2.395,11.424 0.661,3.014 1.284,6.04 2.094,9.015 1.308,4.798 2.653,9.591 4.172,14.325 1.805,5.623 3.798,11.186 5.741,16.764 0.629,1.807 1.244,3.632 2.062,5.355 3.819,8.046 7.38,16.239 11.661,24.034 4.443,8.09 9.454,15.884 14.516,23.612 2.849,4.349 6.275,8.323 9.49,12.427 3.443,4.395 6.856,8.817 10.45,13.085 1.964,2.333 4.27,4.379 6.431,6.543 4.784,4.79 9.416,9.747 14.41,14.305 4.325,3.947 9.033,7.476 13.628,11.119 4.096,3.248 8.222,6.462 12.425,9.569 2.946,2.179 5.908,4.396 9.099,6.173 10.199,5.679 20.31,11.577 30.836,16.59 8.726,4.156 17.952,7.286 27.034,10.662 5.201,1.933 10.522,3.567 15.855,5.109 3.223,0.933 6.575,1.416 9.863,2.132 3.642,0.792 7.264,1.676 10.916,2.411 2.496,0.504 5.027,0.833 7.546,1.221 3.599,0.554 7.19,1.17 10.804,1.604 1.921,0.231 3.894,0.015 5.818,0.234 1.111,0.127 2.17,0.719 3.253,1.102 z" /></g><g
           transform="translate(1191.7905,515.6484)"
           id="g24"><path
             id="path26"
             style="fill:#231f20;fill-opacity:1;fill-rule:nonzero;stroke:none"
             d="m 0,0 c 0,0.822 -0.087,1.297 0.014,1.728 1.144,4.869 2.319,9.731 3.484,14.595 3.798,15.854 7.582,31.711 11.399,47.561 2.319,9.623 4.721,19.226 7.03,28.851 2.24,9.339 4.371,18.703 6.625,28.038 1.33,5.509 2.85,10.972 4.2,16.476 1.045,4.262 1.916,8.565 2.945,12.831 1.068,4.429 2.267,8.825 3.343,13.252 1.028,4.231 1.951,8.489 2.96,12.727 0.943,3.96 1.943,7.906 2.909,11.861 0.837,3.425 1.638,6.859 2.496,10.279 1.078,4.299 2.207,8.586 3.295,12.882 0.712,2.809 1.377,5.628 2.086,8.438 1.127,4.462 2.338,8.906 3.393,13.385 1.058,4.497 1.898,9.045 2.966,13.539 0.981,4.13 2.154,8.214 3.213,12.326 0.746,2.895 1.429,5.807 2.161,8.705 1.107,4.383 2.262,8.754 3.343,13.142 0.736,2.986 1.343,6.004 2.073,8.991 1.115,4.567 2.326,9.112 3.422,13.684 1.015,4.229 1.857,8.5 2.914,12.718 1.055,4.208 2.358,8.354 3.413,12.563 1.056,4.213 1.881,8.484 2.911,12.704 1.393,5.709 2.92,11.386 4.322,17.093 1.014,4.128 1.855,8.298 2.889,12.421 1.363,5.44 2.904,10.837 4.245,16.283 0.802,3.254 1.299,6.582 2.055,9.848 0.94,4.058 1.998,8.088 3.022,12.126 0.778,3.067 1.607,6.122 2.369,9.193 1.024,4.133 1.989,8.28 3.009,12.414 0.779,3.158 1.583,6.309 2.428,9.45 0.142,0.528 0.554,0.983 0.841,1.473 0.351,-0.365 0.806,-0.673 1.038,-1.101 2.664,-4.924 5.307,-9.859 7.93,-14.804 4.904,-9.246 9.776,-18.509 14.694,-27.747 1.852,-3.479 3.839,-6.886 5.688,-10.367 5.296,-9.975 10.546,-19.975 15.832,-29.955 2.147,-4.055 4.347,-8.08 6.509,-12.126 4.759,-8.907 9.504,-17.82 14.263,-26.726 2.162,-4.046 4.357,-8.074 6.514,-12.123 5.049,-9.482 10.08,-18.976 15.131,-28.458 2.114,-3.968 4.27,-7.913 6.387,-11.879 4.799,-8.986 9.572,-17.986 14.384,-26.965 1.732,-3.232 3.45,-6.479 5.364,-9.603 0.907,-1.478 0.748,-2.351 -0.463,-3.533 -5.242,-5.114 -10.431,-10.285 -15.561,-15.511 C 192.197,197.138 178.946,183.561 165.688,169.99 153.535,157.549 141.393,145.096 129.242,132.651 116.507,119.609 103.766,106.573 91.032,93.53 78.684,80.885 66.346,68.229 53.996,55.585 41.131,42.413 28.229,29.274 15.399,16.068 10.836,11.37 6.44,6.511 1.954,1.737 1.458,1.21 0.87,0.768 0,0" /></g><g
           transform="translate(1184.0571,541.5557)"
           id="g28"><path
             id="path30"
             style="fill:#231f20;fill-opacity:1;fill-rule:nonzero;stroke:none"
             d="m 0,0 c -0.262,4.68 -0.479,9.362 -0.802,14.037 -0.22,3.189 -0.446,6.389 -0.919,9.546 -1.044,6.978 -1.694,13.973 -1.827,21.031 -0.06,3.191 -0.46,6.383 -0.846,9.557 -0.526,4.327 -1.187,8.638 -1.788,12.956 -0.013,0.091 -0.014,0.185 -0.019,0.277 -0.29,5.412 -0.45,10.835 -0.91,16.233 -0.394,4.612 -1.133,9.195 -1.718,13.792 -0.024,0.183 -0.047,0.367 -0.058,0.551 -0.299,4.85 -0.494,9.709 -0.922,14.547 -0.464,5.263 -1.144,10.506 -1.729,15.757 -0.02,0.185 -0.028,0.369 -0.038,0.555 -0.31,5.588 -0.492,11.187 -0.967,16.763 -0.378,4.435 -1.114,8.84 -1.69,13.26 -0.024,0.183 -0.038,0.368 -0.049,0.553 -0.312,5.495 -0.499,11.002 -0.972,16.483 -0.391,4.531 -1.12,9.032 -1.697,13.546 -0.024,0.184 -0.042,0.368 -0.052,0.554 -0.308,5.404 -0.49,10.819 -0.956,16.21 -0.4,4.619 -1.124,9.21 -1.702,13.815 -0.035,0.275 -0.047,0.553 -0.062,0.831 -0.299,5.592 -0.599,11.184 -0.897,16.776 -0.005,0.092 0.032,0.202 -0.005,0.276 -2.388,4.802 1.273,7.467 3.643,10.69 3.46,4.707 6.673,9.594 10.062,14.353 2.596,3.646 5.324,7.198 7.953,10.821 2.735,3.768 5.396,7.589 8.135,11.354 2.905,3.992 5.869,7.939 8.795,11.915 1.843,2.503 3.654,5.029 5.496,7.533 2.323,3.156 4.654,6.305 6.998,9.445 2.189,2.932 4.406,5.843 6.597,8.774 2.241,2.999 4.471,6.007 6.697,9.018 2.336,3.158 4.645,6.336 6.997,9.482 2.131,2.853 4.333,5.653 6.452,8.514 3.864,5.216 7.676,10.469 11.536,15.688 2.172,2.936 4.408,5.825 6.593,8.752 3.228,4.324 6.428,8.669 9.655,12.995 2.074,2.781 4.182,5.537 6.259,8.316 2.46,3.291 4.894,6.6 7.358,9.888 1.207,1.611 2.432,3.21 3.705,4.769 0.249,0.306 0.755,0.403 1.142,0.597 0.104,-0.501 0.388,-1.043 0.283,-1.495 -1.449,-6.255 -2.888,-12.515 -4.463,-18.739 -1.064,-4.208 -2.462,-8.332 -3.486,-12.548 -1.067,-4.396 -1.778,-8.878 -2.806,-13.284 -1.068,-4.576 -2.414,-9.087 -3.484,-13.663 -1.32,-5.639 -2.406,-11.333 -3.734,-16.97 -0.974,-4.135 -2.237,-8.202 -3.256,-12.327 -0.804,-3.254 -1.4,-6.557 -2.15,-9.825 -0.669,-2.915 -1.414,-5.812 -2.142,-8.712 -0.77,-3.065 -1.576,-6.121 -2.337,-9.187 -1.156,-4.651 -2.336,-9.296 -3.412,-13.965 -0.753,-3.27 -1.277,-6.592 -2.036,-9.861 -0.939,-4.051 -2.043,-8.065 -3.024,-12.108 -0.831,-3.426 -1.566,-6.876 -2.385,-10.305 -0.694,-2.906 -1.478,-5.791 -2.17,-8.698 -1.087,-4.571 -2.113,-9.156 -3.198,-13.727 -0.69,-2.909 -1.466,-5.797 -2.157,-8.705 -1.109,-4.67 -2.165,-9.35 -3.271,-14.02 -0.668,-2.821 -1.408,-5.625 -2.075,-8.446 -0.832,-3.513 -1.598,-7.041 -2.436,-10.552 -0.672,-2.821 -1.404,-5.628 -2.123,-8.439 -0.783,-3.065 -1.603,-6.122 -2.369,-9.192 -1.157,-4.644 -2.329,-9.284 -3.405,-13.947 -1.039,-4.504 -1.892,-9.051 -2.96,-13.547 -0.982,-4.132 -2.195,-8.208 -3.206,-12.334 -0.798,-3.253 -1.419,-6.548 -2.162,-9.816 -0.662,-2.915 -1.397,-5.814 -2.077,-8.726 -0.822,-3.522 -1.594,-7.056 -2.436,-10.573 -0.675,-2.818 -1.455,-5.61 -2.129,-8.427 C 25.729,84.014 24.687,79.337 23.569,74.679 22.872,71.771 22.091,68.885 21.35,65.988 20.587,63.007 19.809,60.03 19.069,57.044 17.897,52.313 16.697,47.586 15.61,42.835 14.581,38.33 13.769,33.774 12.7,29.279 11.717,25.142 10.461,21.07 9.435,16.943 8.647,13.775 8.063,10.559 7.331,7.377 6.641,4.377 5.85,1.401 5.15,-1.597 4.349,-5.029 3.599,-8.475 2.832,-11.915 c -0.06,-0.27 0.022,-0.614 -0.119,-0.813 -0.357,-0.505 -0.803,-0.948 -1.214,-1.416 -0.153,0.498 -0.404,0.987 -0.444,1.493 C 0.721,-8.434 0.427,-4.214 0.121,0.005 0.081,0.004 0.041,0.002 0,0" /></g><g
           transform="translate(1288.2417,954.3115)"
           id="g32"><path
             id="path34"
             style="fill:#231f20;fill-opacity:1;fill-rule:nonzero;stroke:none"
             d="M 0,0 0.213,-0.102 -0.008,-0.187 Z" /></g></g></g></g></svg>